<svg width="181" height="148" viewBox="0 0 181 148" fill="none" xmlns="http://www.w3.org/2000/svg">
<circle cx="156.5" cy="24.5" r="24.5" fill="#EBF5FF"/>
<circle cx="47" cy="71" r="47" fill="#DCEDFF"/>
<path d="M138.829 137.398C138.167 137.763 137.506 138.105 136.822 138.447C136.548 138.584 136.206 138.47 136.069 138.196C135.932 137.922 136.046 137.58 136.32 137.443C137.666 136.782 138.988 136.052 140.243 135.277C140.516 135.117 140.858 135.186 141.018 135.459C141.178 135.733 141.109 136.075 140.836 136.235C140.197 136.622 139.513 137.01 138.829 137.398ZM132.671 140.203C132.648 140.226 132.626 140.226 132.603 140.249C131.143 140.773 129.661 141.229 128.201 141.594C127.905 141.662 127.586 141.48 127.517 141.184C127.449 140.887 127.631 140.568 127.928 140.499C129.342 140.157 130.801 139.701 132.215 139.199C132.512 139.085 132.831 139.245 132.945 139.542C133.036 139.77 132.922 140.066 132.671 140.203ZM144.553 133.635C144.325 133.772 144.005 133.703 143.823 133.498C143.641 133.247 143.663 132.905 143.914 132.7C145.169 131.697 146.286 130.693 147.221 129.712C147.426 129.484 147.791 129.462 148.019 129.69C148.247 129.895 148.27 130.26 148.042 130.488C147.084 131.514 145.921 132.563 144.621 133.589C144.598 133.589 144.576 133.612 144.553 133.635ZM123.868 142.347C123.8 142.392 123.732 142.415 123.663 142.415C122.112 142.597 120.562 142.666 119.057 142.643C118.737 142.643 118.486 142.369 118.509 142.073C118.509 141.754 118.783 141.503 119.079 141.526C120.539 141.548 122.044 141.48 123.526 141.298C123.846 141.252 124.119 141.48 124.165 141.799C124.188 142.027 124.051 142.233 123.868 142.347ZM114.815 142.164C114.701 142.233 114.587 142.255 114.45 142.233C114.267 142.21 114.085 142.164 113.903 142.141C112.58 141.891 111.257 141.548 109.957 141.092C109.661 140.978 109.501 140.659 109.615 140.363C109.729 140.066 110.048 139.906 110.345 140.02C111.576 140.454 112.853 140.773 114.108 141.024C114.29 141.047 114.45 141.092 114.632 141.115C114.952 141.161 115.157 141.457 115.088 141.776C115.066 141.936 114.952 142.073 114.815 142.164ZM106.263 139.222C106.103 139.314 105.898 139.314 105.715 139.222C104.416 138.515 103.093 137.694 101.816 136.782C101.565 136.6 101.496 136.235 101.679 135.984C101.861 135.733 102.226 135.665 102.477 135.847C103.731 136.737 104.986 137.535 106.263 138.219C106.536 138.356 106.65 138.721 106.491 138.994C106.445 139.085 106.354 139.177 106.263 139.222ZM98.8967 133.977C98.6914 134.091 98.4406 134.068 98.2353 133.909C97.1635 132.951 96.046 131.879 94.9285 130.716C94.7005 130.488 94.7233 130.123 94.9513 129.918C95.1794 129.712 95.5443 129.712 95.7495 129.941C96.8442 131.081 97.9388 132.13 98.9879 133.065C99.2159 133.27 99.2387 133.635 99.0335 133.863C98.9879 133.886 98.9423 133.931 98.8967 133.977ZM92.5796 127.432C92.3515 127.569 92.0551 127.523 91.8726 127.295C90.9604 126.246 90.0026 125.083 88.9536 123.783C88.7483 123.532 88.7939 123.19 89.0448 122.985C89.2956 122.78 89.6377 122.825 89.843 123.076C90.892 124.376 91.827 125.516 92.7392 126.565C92.9445 126.793 92.9217 127.158 92.6708 127.364C92.648 127.409 92.6024 127.432 92.5796 127.432ZM86.8555 120.362C86.6046 120.499 86.3082 120.431 86.1257 120.203L85.5328 119.45C84.7802 118.492 84.0504 117.557 83.3206 116.622C83.1154 116.371 83.161 116.029 83.4119 115.824C83.6627 115.642 84.0048 115.664 84.2101 115.915C84.9398 116.85 85.6924 117.785 86.4222 118.743L87.0151 119.496C87.1975 119.747 87.1748 120.089 86.9239 120.294C86.9011 120.34 86.8783 120.362 86.8555 120.362ZM81.177 113.27C80.9489 113.407 80.6524 113.338 80.47 113.133C79.3753 111.856 78.3947 110.739 77.4597 109.781C77.2317 109.553 77.2545 109.188 77.4825 108.983C77.7106 108.754 78.0754 108.777 78.2807 109.005C79.2385 109.986 80.2419 111.103 81.3366 112.426C81.5418 112.677 81.519 113.019 81.2682 113.224C81.2454 113.224 81.2226 113.247 81.177 113.27ZM74.7915 106.816C74.5862 106.93 74.3582 106.907 74.1529 106.77C72.8758 105.767 71.6672 104.992 70.4585 104.399C70.1848 104.262 70.048 103.92 70.1848 103.646C70.3216 103.372 70.6637 103.236 70.9374 103.372C72.2373 103.988 73.5144 104.809 74.8599 105.881C75.1108 106.086 75.1564 106.428 74.9511 106.679C74.9283 106.725 74.8599 106.77 74.7915 106.816ZM66.6728 103.122C66.5816 103.167 66.4676 103.19 66.3535 103.19C65.7606 103.122 65.1448 103.122 64.5519 103.167C63.6853 103.213 62.8187 103.304 61.9521 103.395C61.6328 103.441 61.3592 103.213 61.3136 102.893C61.2679 102.574 61.496 102.301 61.8153 102.255C62.7047 102.164 63.5941 102.073 64.4607 102.027C65.1221 101.981 65.7834 102.004 66.4447 102.073C66.764 102.095 66.9921 102.392 66.9465 102.688C66.9465 102.871 66.8324 103.053 66.6728 103.122ZM57.6647 104.034C57.6191 104.057 57.5507 104.079 57.5051 104.102C56.0456 104.399 54.586 104.764 53.1493 105.174C52.8528 105.265 52.5335 105.083 52.4423 104.786C52.3511 104.49 52.5335 104.171 52.83 104.079C54.3124 103.646 55.7947 103.281 57.277 102.985C57.5735 102.916 57.8928 103.122 57.9384 103.418C57.984 103.669 57.87 103.92 57.6647 104.034ZM48.9531 106.565C48.9303 106.588 48.9075 106.588 48.8847 106.588C47.4936 107.112 46.1025 107.705 44.7341 108.344C44.4605 108.481 44.1184 108.367 43.9816 108.07C43.8447 107.797 43.9587 107.455 44.2552 107.318C45.6235 106.679 47.0603 106.063 48.4742 105.516C48.7707 105.402 49.0899 105.562 49.204 105.835C49.2952 106.132 49.1812 106.428 48.9531 106.565ZM36.9119 112.905C36.6611 113.042 36.3646 112.973 36.1822 112.745C35.9997 112.495 36.0453 112.13 36.2734 111.947C36.319 111.902 37.6873 110.853 40.1503 109.439C40.4239 109.279 40.766 109.37 40.9257 109.644C41.0853 109.918 40.9941 110.26 40.7204 110.419C38.3258 111.788 36.9803 112.837 36.9803 112.837C36.9575 112.859 36.9347 112.882 36.9119 112.905Z" fill="#6AA3FE"/>
<path d="M110.306 133.709C111.526 126.264 106.479 119.24 99.0345 118.02C91.5897 116.8 84.5655 121.846 83.3456 129.291C82.1257 136.736 87.1719 143.76 94.6168 144.98C102.062 146.2 109.086 141.154 110.306 133.709Z" fill="#FFD48B"/>
<path d="M92.4432 118.766C92.5344 118.948 92.6029 119.131 92.6485 119.336C93.9712 118.88 95.3623 118.629 96.8218 118.629C100.744 118.629 104.256 120.385 106.628 123.167C106.674 123.145 106.697 123.122 106.742 123.099C106.925 122.962 107.084 122.802 107.244 122.643C104.735 119.701 100.995 117.831 96.8218 117.831C95.2939 117.831 93.8115 118.082 92.4204 118.561C92.4432 118.629 92.466 118.698 92.4432 118.766Z" fill="#FFBE64"/>
<path d="M109.683 132.175C109.319 138.949 103.708 144.353 96.8441 144.353C89.7516 144.353 83.9819 138.584 83.9819 131.491C83.9819 128.641 84.9169 126.018 86.4905 123.897C86.2624 123.737 86.0571 123.578 85.8291 123.418C84.1643 125.676 83.1609 128.481 83.1609 131.514C83.1609 139.063 89.2727 145.174 96.8213 145.174C104.119 145.174 110.094 139.45 110.459 132.244C110.231 132.198 109.957 132.175 109.683 132.175Z" fill="#FFBE64"/>
<path d="M95.1794 138.812C94.6093 138.652 94.1076 138.447 93.6515 138.173C93.1954 137.9 92.8077 137.58 92.5112 137.238L93.6743 135.414C94.1076 135.893 94.6093 136.258 95.1566 136.508C95.704 136.759 96.2741 136.873 96.8898 136.873C97.6424 136.873 98.2125 136.714 98.623 136.394C99.0107 136.075 99.216 135.619 99.216 135.026C99.216 134.616 99.1247 134.296 98.9423 134.068C98.7599 133.84 98.5318 133.658 98.2353 133.544C97.9389 133.43 97.574 133.316 97.1179 133.224C97.0951 133.224 97.0951 133.224 97.0723 133.224C97.0495 133.224 97.0495 133.224 97.0267 133.224C97.0039 133.224 96.9811 133.224 96.9583 133.202C96.9355 133.202 96.9126 133.202 96.8898 133.179C96.0916 133.019 95.4303 132.86 94.9286 132.654C94.4269 132.449 93.9936 132.107 93.6515 131.582C93.2866 131.058 93.1042 130.328 93.1042 129.37C93.1042 128.481 93.2638 127.728 93.5831 127.113C93.9023 126.497 94.3813 126.041 95.0198 125.744C95.6584 125.425 96.4337 125.265 97.3687 125.265C97.7792 125.265 98.1897 125.311 98.623 125.425C99.0335 125.516 99.4668 125.676 99.8773 125.881C100.288 126.086 100.676 126.314 101.063 126.611L100.014 128.458C99.5809 128.116 99.1476 127.865 98.6915 127.706C98.2582 127.523 97.8249 127.455 97.3916 127.455C96.6846 127.455 96.1601 127.592 95.7952 127.911C95.4303 128.207 95.2479 128.641 95.2479 129.211C95.2479 129.644 95.3619 129.986 95.5671 130.237C95.7724 130.488 96.0232 130.67 96.3425 130.784C96.6618 130.898 97.0723 131.012 97.6196 131.149C97.6424 131.149 97.6424 131.149 97.6652 131.149C97.688 131.149 97.688 131.149 97.7108 131.149C97.7336 131.149 97.7792 131.172 97.802 131.172C97.8248 131.172 97.8705 131.195 97.8933 131.195C98.6002 131.354 99.216 131.56 99.6949 131.788C100.174 132.016 100.584 132.403 100.904 132.928C101.223 133.453 101.382 134.159 101.382 135.049C101.382 135.938 101.223 136.668 100.881 137.261C100.539 137.854 100.037 138.31 99.3756 138.607C98.7143 138.903 97.9161 139.063 96.9355 139.063C96.2969 139.04 95.7268 138.949 95.1794 138.812ZM96.046 123.783H98.1441V125.904H96.046V123.783ZM96.046 138.31H98.1441V140.545H96.046V138.31Z" fill="white"/>
<path d="M157.132 132.279C157.993 127.047 154.449 122.108 149.217 121.247C143.985 120.387 139.046 123.93 138.186 129.162C137.325 134.394 140.869 139.333 146.101 140.194C151.333 141.054 156.272 137.511 157.132 132.279Z" fill="#FFD48B"/>
<path d="M144.598 121.776C144.667 121.89 144.712 122.027 144.735 122.164C145.647 121.845 146.651 121.662 147.677 121.662C150.436 121.662 152.899 122.894 154.564 124.855C154.587 124.832 154.61 124.832 154.632 124.809C154.746 124.718 154.883 124.604 154.997 124.49C153.241 122.415 150.619 121.092 147.677 121.092C146.605 121.092 145.556 121.274 144.598 121.594C144.598 121.662 144.598 121.731 144.598 121.776Z" fill="#FFBE64"/>
<path d="M156.708 131.195C156.457 135.961 152.512 139.77 147.677 139.77C142.683 139.77 138.623 135.71 138.623 130.716C138.623 128.709 139.285 126.862 140.379 125.379C140.22 125.265 140.083 125.151 139.923 125.037C138.76 126.634 138.053 128.595 138.053 130.716C138.053 136.03 142.363 140.317 147.654 140.317C152.785 140.317 156.982 136.303 157.255 131.218C157.073 131.218 156.89 131.195 156.708 131.195Z" fill="#FFBE64"/>
<path d="M146.491 135.847C146.103 135.733 145.739 135.596 145.419 135.391C145.1 135.208 144.826 134.98 144.621 134.73L145.442 133.452C145.761 133.795 146.103 134.045 146.491 134.228C146.879 134.41 147.289 134.502 147.723 134.502C148.247 134.502 148.658 134.388 148.931 134.182C149.205 133.954 149.342 133.635 149.342 133.224C149.342 132.928 149.273 132.723 149.159 132.54C149.023 132.381 148.863 132.244 148.658 132.175C148.452 132.084 148.179 132.016 147.859 131.947H147.837H147.814C147.791 131.947 147.791 131.947 147.768 131.947C147.745 131.947 147.723 131.947 147.723 131.947C147.152 131.833 146.696 131.719 146.354 131.582C146.012 131.446 145.693 131.195 145.442 130.83C145.191 130.465 145.054 129.94 145.054 129.279C145.054 128.641 145.168 128.116 145.396 127.706C145.625 127.272 145.967 126.953 146.423 126.748C146.879 126.52 147.426 126.428 148.065 126.428C148.361 126.428 148.658 126.474 148.931 126.542C149.228 126.611 149.524 126.725 149.798 126.862C150.094 126.999 150.368 127.181 150.642 127.363L149.889 128.663C149.593 128.435 149.273 128.253 148.954 128.139C148.635 128.025 148.338 127.956 148.042 127.956C147.54 127.956 147.175 128.07 146.924 128.276C146.674 128.481 146.537 128.777 146.537 129.188C146.537 129.507 146.605 129.735 146.765 129.918C146.902 130.1 147.084 130.214 147.312 130.305C147.54 130.397 147.837 130.465 148.202 130.556C148.224 130.556 148.224 130.556 148.224 130.556H148.247C148.27 130.556 148.293 130.556 148.316 130.579C148.338 130.579 148.361 130.579 148.384 130.602C148.886 130.716 149.319 130.853 149.638 131.035C149.98 131.195 150.254 131.468 150.482 131.833C150.71 132.198 150.824 132.7 150.824 133.338C150.824 133.954 150.71 134.479 150.459 134.889C150.208 135.3 149.866 135.619 149.41 135.847C148.954 136.052 148.384 136.166 147.7 136.166C147.289 136.007 146.902 135.961 146.491 135.847ZM147.107 125.288H148.589V126.771H147.107V125.288ZM147.107 135.505H148.589V137.079H147.107V135.505Z" fill="white"/>
<path d="M39.2495 128.887C48.9191 127.302 55.4726 118.178 53.8871 108.508C52.3016 98.8387 43.1776 92.2853 33.5081 93.8707C23.8385 95.4562 17.285 104.58 18.8705 114.25C20.456 123.919 29.58 130.473 39.2495 128.887Z" fill="#FFD48B"/>
<path d="M30.6859 94.866C30.8227 95.0941 30.8911 95.3449 30.9368 95.5958C32.6471 95.0028 34.4716 94.6836 36.3644 94.6836C41.45 94.6836 46.011 96.9869 49.0897 100.59C49.1354 100.567 49.181 100.522 49.2266 100.499C49.4546 100.316 49.6827 100.111 49.8879 99.906C46.6268 96.0747 41.7921 93.6345 36.3644 93.6345C34.3575 93.6345 32.4419 93.9766 30.6631 94.5695C30.6859 94.6836 30.7087 94.7748 30.6859 94.866Z" fill="#FFBE64"/>
<path d="M53.0579 112.266C52.6018 121.069 45.3041 128.093 36.3873 128.093C27.1739 128.093 19.6938 120.59 19.6938 111.4C19.6938 107.705 20.9025 104.285 22.9322 101.525C22.6585 101.32 22.362 101.115 22.0884 100.887C19.9219 103.828 18.6448 107.455 18.6448 111.377C18.6448 121.183 26.581 129.12 36.3873 129.12C45.8743 129.12 53.6053 121.685 54.107 112.335C53.7649 112.289 53.4228 112.266 53.0579 112.266Z" fill="#FFBE64"/>
<path d="M34.2208 120.864C33.491 120.659 32.8297 120.385 32.2367 120.043C31.6438 119.701 31.1421 119.29 30.7544 118.812L32.2596 116.463C32.8297 117.078 33.4682 117.557 34.1752 117.877C34.8821 118.196 35.6347 118.355 36.4329 118.355C37.4135 118.355 38.1661 118.15 38.6678 117.74C39.1695 117.329 39.4204 116.736 39.4204 115.961C39.4204 115.436 39.3064 115.026 39.0555 114.707C38.8275 114.41 38.5082 114.182 38.1433 114.022C37.7556 113.863 37.2767 113.749 36.6838 113.612C36.661 113.612 36.661 113.589 36.6382 113.589C36.6154 113.589 36.5925 113.589 36.5697 113.566C36.5469 113.566 36.5013 113.543 36.4785 113.543C36.4329 113.543 36.4101 113.543 36.3873 113.521C35.3383 113.315 34.4945 113.087 33.8331 112.837C33.1946 112.586 32.6244 112.107 32.1683 111.445C31.7122 110.761 31.4614 109.803 31.4614 108.572C31.4614 107.409 31.6666 106.428 32.0999 105.653C32.5332 104.877 33.149 104.262 33.9699 103.874C34.7909 103.464 35.8172 103.258 37.0258 103.258C37.5504 103.258 38.0977 103.327 38.645 103.441C39.1924 103.578 39.7397 103.76 40.2642 104.011C40.7887 104.262 41.3132 104.581 41.815 104.946L40.4466 107.34C39.8765 106.907 39.3064 106.588 38.7362 106.36C38.1661 106.132 37.596 106.018 37.0487 106.018C36.1364 106.018 35.4523 106.2 34.9734 106.588C34.4945 106.976 34.2664 107.523 34.2664 108.275C34.2664 108.846 34.4032 109.279 34.6769 109.621C34.9506 109.94 35.2698 110.168 35.6803 110.328C36.0908 110.488 36.6382 110.624 37.3451 110.784C37.3679 110.784 37.3907 110.784 37.4135 110.807C37.4363 110.807 37.4591 110.83 37.4819 110.83C37.5276 110.83 37.5504 110.852 37.596 110.852C37.6416 110.852 37.6644 110.875 37.71 110.875C38.645 111.103 39.4204 111.354 40.0361 111.651C40.6519 111.947 41.1764 112.449 41.6097 113.133C42.0202 113.817 42.2483 114.729 42.2483 115.892V115.915C42.2483 117.033 42.0202 117.991 41.5869 118.766C41.1536 119.541 40.4922 120.134 39.6484 120.522C38.7818 120.91 37.7328 121.115 36.4785 121.115C35.6803 121.16 34.9506 121.069 34.2208 120.864ZM35.3383 101.365H38.0749V104.102H35.3383V101.365ZM35.3383 120.203H38.0749V123.099H35.3383V120.203Z" fill="white"/>
<path d="M153.921 93.0687H48.3696C44.6453 93.0687 41.6404 90.0639 41.6404 86.3395V23.7239C41.6404 19.9995 44.6453 16.9946 48.3696 16.9946H153.921C157.645 16.9946 160.65 19.9995 160.65 23.7239V86.3395C160.65 90.0427 157.645 93.0687 153.921 93.0687Z" fill="#2FC3C2"/>
<path d="M42.106 24.5068C41.7886 24.5068 41.5347 24.2528 41.5347 23.9354C41.5347 19.5551 45.0897 16 49.4701 16H106.669C106.986 16 107.24 16.2539 107.24 16.5713C107.24 16.8888 106.986 17.1427 106.669 17.1427H49.4912C45.7457 17.1427 42.6985 20.1899 42.6985 23.9354C42.6985 24.2528 42.4446 24.5068 42.106 24.5068Z" fill="#209392"/>
<path d="M160.651 79.6526C160.334 79.6526 160.08 79.3987 160.08 79.0813V21.904C160.08 21.5866 160.334 21.3326 160.651 21.3326C160.968 21.3326 161.222 21.5866 161.222 21.904V79.0813C161.222 79.3987 160.968 79.6526 160.651 79.6526Z" fill="#209392"/>
<path d="M138.791 93.9786H47.2268C44.095 93.9786 41.5557 91.4393 41.5557 88.3074V81.3243C41.5557 81.0069 41.8096 80.7529 42.127 80.7529C42.4444 80.7529 42.6984 81.0069 42.6984 81.3243V88.3074C42.6984 90.8044 44.7298 92.8359 47.2268 92.8359H138.791C139.108 92.8359 139.362 93.0898 139.362 93.4073C139.362 93.7247 139.108 93.9786 138.791 93.9786Z" fill="#209392"/>
<path d="M160.65 47.8474H41.6404V59.7399H160.65V47.8474Z" fill="#1AADAC"/>
<path d="M62.8018 33.3309H52.5176C51.3325 33.3309 50.3591 32.3575 50.3591 31.1725V25.5013C50.3591 24.3163 51.3325 23.3429 52.5176 23.3429H62.8018C63.9869 23.3429 64.9603 24.3163 64.9603 25.5013V31.1725C64.9603 32.3575 63.9869 33.3309 62.8018 33.3309Z" fill="#FFA85A"/>
<path d="M71.6263 33.3309H61.342C60.157 33.3309 59.1836 32.3575 59.1836 31.1725V25.5013C59.1836 24.3163 60.157 23.3429 61.342 23.3429H71.6263C72.8113 23.3429 73.7847 24.3163 73.7847 25.5013V31.1725C73.7847 32.3575 72.8325 33.3309 71.6263 33.3309Z" fill="#8E2DEF"/>
<path d="M66.7801 78.9331H49.555C48.7932 78.9331 48.2007 78.3194 48.2007 77.5788V77.2402C48.2007 76.4784 48.8144 75.8859 49.555 75.8859H66.7801C67.5419 75.8859 68.1344 76.4995 68.1344 77.2402V77.5788C68.1344 78.3194 67.5208 78.9331 66.7801 78.9331Z" fill="white"/>
<path d="M153.583 78.9331H136.252C135.532 78.9331 134.94 78.3406 134.94 77.6211V77.1767C134.94 76.4573 135.532 75.8647 136.252 75.8647H153.583C154.302 75.8647 154.895 76.4573 154.895 77.1767V77.6211C154.895 78.3618 154.302 78.9331 153.583 78.9331Z" fill="white"/>
<path d="M153.583 73.9602H136.252C135.532 73.9602 134.94 73.3677 134.94 72.6482V72.2038C134.94 71.4844 135.532 70.8918 136.252 70.8918H153.583C154.302 70.8918 154.895 71.4844 154.895 72.2038V72.6482C154.895 73.3677 154.302 73.9602 153.583 73.9602Z" fill="white"/>
</svg>
