<svg width="422" height="148" viewBox="0 0 422 148" fill="none" xmlns="http://www.w3.org/2000/svg">
<circle cx="269.5" cy="24.5" r="24.5" fill="#EBF5FF"/>
<circle cx="160" cy="71" r="47" fill="#DCEDFF"/>
<path d="M251.829 137.398C251.167 137.763 250.506 138.105 249.822 138.447C249.548 138.584 249.206 138.47 249.069 138.196C248.932 137.922 249.046 137.58 249.32 137.443C250.666 136.782 251.988 136.052 253.243 135.277C253.516 135.117 253.858 135.186 254.018 135.459C254.178 135.733 254.109 136.075 253.836 136.235C253.197 136.622 252.513 137.01 251.829 137.398ZM245.671 140.203C245.648 140.226 245.626 140.226 245.603 140.249C244.143 140.773 242.661 141.229 241.201 141.594C240.905 141.662 240.586 141.48 240.517 141.184C240.449 140.887 240.631 140.568 240.928 140.499C242.342 140.157 243.801 139.701 245.215 139.199C245.512 139.085 245.831 139.245 245.945 139.542C246.036 139.77 245.922 140.066 245.671 140.203ZM257.553 133.635C257.325 133.772 257.005 133.703 256.823 133.498C256.641 133.247 256.663 132.905 256.914 132.7C258.169 131.697 259.286 130.693 260.221 129.712C260.426 129.484 260.791 129.462 261.019 129.69C261.247 129.895 261.27 130.26 261.042 130.488C260.084 131.514 258.921 132.563 257.621 133.589C257.598 133.589 257.576 133.612 257.553 133.635ZM236.868 142.347C236.8 142.392 236.732 142.415 236.663 142.415C235.112 142.597 233.562 142.666 232.057 142.643C231.737 142.643 231.486 142.369 231.509 142.073C231.509 141.754 231.783 141.503 232.079 141.526C233.539 141.548 235.044 141.48 236.526 141.298C236.846 141.252 237.119 141.48 237.165 141.799C237.188 142.027 237.051 142.233 236.868 142.347ZM227.815 142.164C227.701 142.233 227.587 142.255 227.45 142.233C227.267 142.21 227.085 142.164 226.903 142.141C225.58 141.891 224.257 141.548 222.957 141.092C222.661 140.978 222.501 140.659 222.615 140.363C222.729 140.066 223.048 139.906 223.345 140.02C224.576 140.454 225.853 140.773 227.108 141.024C227.29 141.047 227.45 141.092 227.632 141.115C227.952 141.161 228.157 141.457 228.088 141.776C228.066 141.936 227.952 142.073 227.815 142.164ZM219.263 139.222C219.103 139.314 218.898 139.314 218.715 139.222C217.416 138.515 216.093 137.694 214.816 136.782C214.565 136.6 214.496 136.235 214.679 135.984C214.861 135.733 215.226 135.665 215.477 135.847C216.731 136.737 217.986 137.535 219.263 138.219C219.536 138.356 219.65 138.721 219.491 138.994C219.445 139.085 219.354 139.177 219.263 139.222ZM211.897 133.977C211.691 134.091 211.441 134.068 211.235 133.909C210.163 132.951 209.046 131.879 207.929 130.716C207.7 130.488 207.723 130.123 207.951 129.918C208.179 129.712 208.544 129.712 208.75 129.941C209.844 131.081 210.939 132.13 211.988 133.065C212.216 133.27 212.239 133.635 212.033 133.863C211.988 133.886 211.942 133.931 211.897 133.977ZM205.58 127.432C205.352 127.569 205.055 127.523 204.873 127.295C203.96 126.246 203.003 125.083 201.954 123.783C201.748 123.532 201.794 123.19 202.045 122.985C202.296 122.78 202.638 122.825 202.843 123.076C203.892 124.376 204.827 125.516 205.739 126.565C205.944 126.793 205.922 127.158 205.671 127.364C205.648 127.409 205.602 127.432 205.58 127.432ZM199.855 120.362C199.605 120.499 199.308 120.431 199.126 120.203L198.533 119.45C197.78 118.492 197.05 117.557 196.321 116.622C196.115 116.371 196.161 116.029 196.412 115.824C196.663 115.642 197.005 115.664 197.21 115.915C197.94 116.85 198.692 117.785 199.422 118.743L200.015 119.496C200.198 119.747 200.175 120.089 199.924 120.294C199.901 120.34 199.878 120.362 199.855 120.362ZM194.177 113.27C193.949 113.407 193.652 113.338 193.47 113.133C192.375 111.856 191.395 110.739 190.46 109.781C190.232 109.553 190.254 109.188 190.483 108.983C190.711 108.754 191.075 108.777 191.281 109.005C192.239 109.986 193.242 111.103 194.337 112.426C194.542 112.677 194.519 113.019 194.268 113.224C194.245 113.224 194.223 113.247 194.177 113.27ZM187.791 106.816C187.586 106.93 187.358 106.907 187.153 106.77C185.876 105.767 184.667 104.992 183.458 104.399C183.185 104.262 183.048 103.92 183.185 103.646C183.322 103.372 183.664 103.236 183.937 103.372C185.237 103.988 186.514 104.809 187.86 105.881C188.111 106.086 188.156 106.428 187.951 106.679C187.928 106.725 187.86 106.77 187.791 106.816ZM179.673 103.122C179.582 103.167 179.468 103.19 179.354 103.19C178.761 103.122 178.145 103.122 177.552 103.167C176.685 103.213 175.819 103.304 174.952 103.395C174.633 103.441 174.359 103.213 174.314 102.893C174.268 102.574 174.496 102.301 174.815 102.255C175.705 102.164 176.594 102.073 177.461 102.027C178.122 101.981 178.783 102.004 179.445 102.073C179.764 102.095 179.992 102.392 179.946 102.688C179.946 102.871 179.832 103.053 179.673 103.122ZM170.665 104.034C170.619 104.057 170.551 104.079 170.505 104.102C169.046 104.399 167.586 104.764 166.149 105.174C165.853 105.265 165.534 105.083 165.442 104.786C165.351 104.49 165.534 104.171 165.83 104.079C167.312 103.646 168.795 103.281 170.277 102.985C170.574 102.916 170.893 103.122 170.938 103.418C170.984 103.669 170.87 103.92 170.665 104.034ZM161.953 106.565C161.93 106.588 161.907 106.588 161.885 106.588C160.494 107.112 159.102 107.705 157.734 108.344C157.46 108.481 157.118 108.367 156.982 108.07C156.845 107.797 156.959 107.455 157.255 107.318C158.624 106.679 160.06 106.063 161.474 105.516C161.771 105.402 162.09 105.562 162.204 105.835C162.295 106.132 162.181 106.428 161.953 106.565ZM149.912 112.905C149.661 113.042 149.365 112.973 149.182 112.745C149 112.495 149.045 112.13 149.273 111.947C149.319 111.902 150.687 110.853 153.15 109.439C153.424 109.279 153.766 109.37 153.926 109.644C154.085 109.918 153.994 110.26 153.72 110.419C151.326 111.788 149.98 112.837 149.98 112.837C149.958 112.859 149.935 112.882 149.912 112.905Z" fill="#6AA3FE"/>
<path d="M223.306 133.709C224.526 126.264 219.479 119.24 212.035 118.02C204.59 116.8 197.566 121.846 196.346 129.291C195.126 136.736 200.172 143.76 207.617 144.98C215.062 146.2 222.086 141.154 223.306 133.709Z" fill="#FFD48B"/>
<path d="M205.443 118.766C205.534 118.948 205.603 119.131 205.648 119.336C206.971 118.88 208.362 118.629 209.822 118.629C213.744 118.629 217.256 120.385 219.628 123.167C219.674 123.145 219.697 123.122 219.742 123.099C219.925 122.962 220.084 122.802 220.244 122.643C217.735 119.701 213.995 117.831 209.822 117.831C208.294 117.831 206.812 118.082 205.42 118.561C205.443 118.629 205.466 118.698 205.443 118.766Z" fill="#FFBE64"/>
<path d="M222.683 132.175C222.319 138.949 216.708 144.353 209.844 144.353C202.752 144.353 196.982 138.584 196.982 131.491C196.982 128.641 197.917 126.018 199.49 123.897C199.262 123.737 199.057 123.578 198.829 123.418C197.164 125.676 196.161 128.481 196.161 131.514C196.161 139.063 202.273 145.174 209.821 145.174C217.119 145.174 223.094 139.45 223.459 132.244C223.231 132.198 222.957 132.175 222.683 132.175Z" fill="#FFBE64"/>
<path d="M208.179 138.812C207.609 138.652 207.108 138.447 206.651 138.173C206.195 137.9 205.808 137.58 205.511 137.238L206.674 135.414C207.108 135.893 207.609 136.258 208.157 136.508C208.704 136.759 209.274 136.873 209.89 136.873C210.642 136.873 211.213 136.714 211.623 136.394C212.011 136.075 212.216 135.619 212.216 135.026C212.216 134.616 212.125 134.296 211.942 134.068C211.76 133.84 211.532 133.658 211.235 133.544C210.939 133.43 210.574 133.316 210.118 133.224C210.095 133.224 210.095 133.224 210.072 133.224C210.049 133.224 210.049 133.224 210.027 133.224C210.004 133.224 209.981 133.224 209.958 133.202C209.935 133.202 209.913 133.202 209.89 133.179C209.092 133.019 208.43 132.86 207.929 132.654C207.427 132.449 206.994 132.107 206.651 131.582C206.287 131.058 206.104 130.328 206.104 129.37C206.104 128.481 206.264 127.728 206.583 127.113C206.902 126.497 207.381 126.041 208.02 125.744C208.658 125.425 209.434 125.265 210.369 125.265C210.779 125.265 211.19 125.311 211.623 125.425C212.034 125.516 212.467 125.676 212.877 125.881C213.288 126.086 213.676 126.314 214.063 126.611L213.014 128.458C212.581 128.116 212.148 127.865 211.691 127.706C211.258 127.523 210.825 127.455 210.392 127.455C209.685 127.455 209.16 127.592 208.795 127.911C208.43 128.207 208.248 128.641 208.248 129.211C208.248 129.644 208.362 129.986 208.567 130.237C208.772 130.488 209.023 130.67 209.342 130.784C209.662 130.898 210.072 131.012 210.62 131.149C210.642 131.149 210.642 131.149 210.665 131.149C210.688 131.149 210.688 131.149 210.711 131.149C210.734 131.149 210.779 131.172 210.802 131.172C210.825 131.172 210.87 131.195 210.893 131.195C211.6 131.354 212.216 131.56 212.695 131.788C213.174 132.016 213.584 132.403 213.904 132.928C214.223 133.453 214.382 134.159 214.382 135.049C214.382 135.938 214.223 136.668 213.881 137.261C213.539 137.854 213.037 138.31 212.376 138.607C211.714 138.903 210.916 139.063 209.935 139.063C209.297 139.04 208.727 138.949 208.179 138.812ZM209.046 123.783H211.144V125.904H209.046V123.783ZM209.046 138.31H211.144V140.545H209.046V138.31Z" fill="white"/>
<path d="M270.133 132.279C270.993 127.047 267.449 122.108 262.217 121.247C256.986 120.387 252.047 123.93 251.186 129.162C250.325 134.394 253.869 139.333 259.101 140.194C264.333 141.054 269.272 137.511 270.133 132.279Z" fill="#FFD48B"/>
<path d="M257.598 121.776C257.667 121.89 257.712 122.027 257.735 122.164C258.647 121.845 259.651 121.662 260.677 121.662C263.436 121.662 265.899 122.894 267.564 124.855C267.587 124.832 267.61 124.832 267.633 124.809C267.747 124.718 267.883 124.604 267.997 124.49C266.241 122.415 263.619 121.092 260.677 121.092C259.605 121.092 258.556 121.274 257.598 121.594C257.598 121.662 257.598 121.731 257.598 121.776Z" fill="#FFBE64"/>
<path d="M269.708 131.195C269.457 135.961 265.512 139.77 260.677 139.77C255.683 139.77 251.623 135.71 251.623 130.716C251.623 128.709 252.285 126.862 253.379 125.379C253.22 125.265 253.083 125.151 252.923 125.037C251.76 126.634 251.053 128.595 251.053 130.716C251.053 136.03 255.364 140.317 260.654 140.317C265.786 140.317 269.982 136.303 270.255 131.218C270.073 131.218 269.891 131.195 269.708 131.195Z" fill="#FFBE64"/>
<path d="M259.491 135.847C259.104 135.733 258.739 135.596 258.42 135.391C258.1 135.208 257.827 134.98 257.621 134.73L258.442 133.452C258.762 133.795 259.104 134.045 259.491 134.228C259.879 134.41 260.29 134.502 260.723 134.502C261.247 134.502 261.658 134.388 261.932 134.182C262.205 133.954 262.342 133.635 262.342 133.224C262.342 132.928 262.274 132.723 262.16 132.54C262.023 132.381 261.863 132.244 261.658 132.175C261.453 132.084 261.179 132.016 260.86 131.947H260.837H260.814C260.791 131.947 260.791 131.947 260.768 131.947C260.746 131.947 260.723 131.947 260.723 131.947C260.153 131.833 259.697 131.719 259.355 131.582C259.012 131.446 258.693 131.195 258.442 130.83C258.191 130.465 258.055 129.94 258.055 129.279C258.055 128.641 258.169 128.116 258.397 127.706C258.625 127.272 258.967 126.953 259.423 126.748C259.879 126.52 260.426 126.428 261.065 126.428C261.361 126.428 261.658 126.474 261.932 126.542C262.228 126.611 262.524 126.725 262.798 126.862C263.095 126.999 263.368 127.181 263.642 127.363L262.889 128.663C262.593 128.435 262.274 128.253 261.954 128.139C261.635 128.025 261.339 127.956 261.042 127.956C260.54 127.956 260.176 128.07 259.925 128.276C259.674 128.481 259.537 128.777 259.537 129.188C259.537 129.507 259.605 129.735 259.765 129.918C259.902 130.1 260.084 130.214 260.312 130.305C260.54 130.397 260.837 130.465 261.202 130.556C261.225 130.556 261.225 130.556 261.225 130.556H261.247C261.27 130.556 261.293 130.556 261.316 130.579C261.339 130.579 261.361 130.579 261.384 130.602C261.886 130.716 262.319 130.853 262.638 131.035C262.981 131.195 263.254 131.468 263.482 131.833C263.71 132.198 263.824 132.7 263.824 133.338C263.824 133.954 263.71 134.479 263.459 134.889C263.209 135.3 262.867 135.619 262.41 135.847C261.954 136.052 261.384 136.166 260.7 136.166C260.29 136.007 259.902 135.961 259.491 135.847ZM260.107 125.288H261.589V126.771H260.107V125.288ZM260.107 135.505H261.589V137.079H260.107V135.505Z" fill="white"/>
<path d="M152.25 128.887C161.919 127.302 168.473 118.178 166.887 108.508C165.302 98.8387 156.178 92.2853 146.508 93.8707C136.839 95.4562 130.285 104.58 131.871 114.25C133.456 123.919 142.58 130.473 152.25 128.887Z" fill="#FFD48B"/>
<path d="M143.686 94.866C143.823 95.0941 143.891 95.3449 143.937 95.5958C145.647 95.0028 147.472 94.6836 149.365 94.6836C154.45 94.6836 159.011 96.9869 162.09 100.59C162.135 100.567 162.181 100.522 162.227 100.499C162.455 100.316 162.683 100.111 162.888 99.906C159.627 96.0747 154.792 93.6345 149.365 93.6345C147.358 93.6345 145.442 93.9766 143.663 94.5695C143.686 94.6836 143.709 94.7748 143.686 94.866Z" fill="#FFBE64"/>
<path d="M166.058 112.266C165.602 121.069 158.304 128.093 149.387 128.093C140.174 128.093 132.694 120.59 132.694 111.4C132.694 107.705 133.903 104.285 135.932 101.525C135.659 101.32 135.362 101.115 135.088 100.887C132.922 103.828 131.645 107.455 131.645 111.377C131.645 121.183 139.581 129.12 149.387 129.12C158.874 129.12 166.605 121.685 167.107 112.335C166.765 112.289 166.423 112.266 166.058 112.266Z" fill="#FFBE64"/>
<path d="M147.221 120.864C146.491 120.659 145.83 120.385 145.237 120.043C144.644 119.701 144.142 119.29 143.755 118.812L145.26 116.463C145.83 117.078 146.468 117.557 147.175 117.877C147.882 118.196 148.635 118.355 149.433 118.355C150.414 118.355 151.166 118.15 151.668 117.74C152.17 117.329 152.421 116.736 152.421 115.961C152.421 115.436 152.306 115.026 152.056 114.707C151.828 114.41 151.508 114.182 151.143 114.022C150.756 113.863 150.277 113.749 149.684 113.612C149.661 113.612 149.661 113.589 149.638 113.589C149.615 113.589 149.593 113.589 149.57 113.566C149.547 113.566 149.501 113.543 149.479 113.543C149.433 113.543 149.41 113.543 149.387 113.521C148.338 113.315 147.495 113.087 146.833 112.837C146.195 112.586 145.625 112.107 145.168 111.445C144.712 110.761 144.461 109.803 144.461 108.572C144.461 107.409 144.667 106.428 145.1 105.653C145.533 104.877 146.149 104.262 146.97 103.874C147.791 103.464 148.817 103.258 150.026 103.258C150.55 103.258 151.098 103.327 151.645 103.441C152.192 103.578 152.74 103.76 153.264 104.011C153.789 104.262 154.313 104.581 154.815 104.946L153.447 107.34C152.877 106.907 152.306 106.588 151.736 106.36C151.166 106.132 150.596 106.018 150.049 106.018C149.137 106.018 148.452 106.2 147.973 106.588C147.495 106.976 147.267 107.523 147.267 108.275C147.267 108.846 147.403 109.279 147.677 109.621C147.951 109.94 148.27 110.168 148.68 110.328C149.091 110.488 149.638 110.624 150.345 110.784C150.368 110.784 150.391 110.784 150.414 110.807C150.436 110.807 150.459 110.83 150.482 110.83C150.528 110.83 150.55 110.852 150.596 110.852C150.642 110.852 150.665 110.875 150.71 110.875C151.645 111.103 152.421 111.354 153.036 111.651C153.652 111.947 154.177 112.449 154.61 113.133C155.02 113.817 155.248 114.729 155.248 115.892V115.915C155.248 117.033 155.02 117.991 154.587 118.766C154.154 119.541 153.492 120.134 152.649 120.522C151.782 120.91 150.733 121.115 149.479 121.115C148.68 121.16 147.951 121.069 147.221 120.864ZM148.338 101.365H151.075V104.102H148.338V101.365ZM148.338 120.203H151.075V123.099H148.338V120.203Z" fill="white"/>
<path d="M266.921 93.0687H161.37C157.645 93.0687 154.64 90.0639 154.64 86.3395V23.7239C154.64 19.9995 157.645 16.9946 161.37 16.9946H266.921C270.645 16.9946 273.65 19.9995 273.65 23.7239V86.3395C273.65 90.0427 270.645 93.0687 266.921 93.0687Z" fill="#2FC3C2"/>
<path d="M155.106 24.5068C154.789 24.5068 154.535 24.2528 154.535 23.9354C154.535 19.5551 158.09 16 162.47 16H219.669C219.986 16 220.24 16.2539 220.24 16.5713C220.24 16.8888 219.986 17.1427 219.669 17.1427H162.491C158.746 17.1427 155.699 20.1899 155.699 23.9354C155.699 24.2528 155.445 24.5068 155.106 24.5068Z" fill="#209392"/>
<path d="M273.651 79.6526C273.333 79.6526 273.08 79.3987 273.08 79.0813V21.904C273.08 21.5866 273.333 21.3326 273.651 21.3326C273.968 21.3326 274.222 21.5866 274.222 21.904V79.0813C274.222 79.3987 273.968 79.6526 273.651 79.6526Z" fill="#209392"/>
<path d="M251.791 93.9786H160.227C157.095 93.9786 154.556 91.4393 154.556 88.3074V81.3243C154.556 81.0069 154.809 80.7529 155.127 80.7529C155.444 80.7529 155.698 81.0069 155.698 81.3243V88.3074C155.698 90.8044 157.73 92.8359 160.227 92.8359H251.791C252.108 92.8359 252.362 93.0898 252.362 93.4073C252.362 93.7247 252.108 93.9786 251.791 93.9786Z" fill="#209392"/>
<path d="M273.65 47.8474H154.64V59.7399H273.65V47.8474Z" fill="#1AADAC"/>
<path d="M175.802 33.3309H165.517C164.332 33.3309 163.359 32.3575 163.359 31.1725V25.5013C163.359 24.3163 164.332 23.3429 165.517 23.3429H175.802C176.987 23.3429 177.96 24.3163 177.96 25.5013V31.1725C177.96 32.3575 176.987 33.3309 175.802 33.3309Z" fill="#FFA85A"/>
<path d="M184.626 33.3309H174.342C173.157 33.3309 172.184 32.3575 172.184 31.1725V25.5013C172.184 24.3163 173.157 23.3429 174.342 23.3429H184.626C185.811 23.3429 186.785 24.3163 186.785 25.5013V31.1725C186.785 32.3575 185.832 33.3309 184.626 33.3309Z" fill="#8E2DEF"/>
<path d="M179.78 78.9331H162.555C161.793 78.9331 161.201 78.3194 161.201 77.5788V77.2402C161.201 76.4784 161.814 75.8859 162.555 75.8859H179.78C180.542 75.8859 181.134 76.4995 181.134 77.2402V77.5788C181.134 78.3194 180.521 78.9331 179.78 78.9331Z" fill="white"/>
<path d="M266.583 78.9331H249.252C248.532 78.9331 247.94 78.3406 247.94 77.6211V77.1767C247.94 76.4573 248.532 75.8647 249.252 75.8647H266.583C267.302 75.8647 267.895 76.4573 267.895 77.1767V77.6211C267.895 78.3618 267.302 78.9331 266.583 78.9331Z" fill="white"/>
<path d="M266.583 73.9602H249.252C248.532 73.9602 247.94 73.3677 247.94 72.6482V72.2038C247.94 71.4844 248.532 70.8918 249.252 70.8918H266.583C267.302 70.8918 267.895 71.4844 267.895 72.2038V72.6482C267.895 73.3677 267.302 73.9602 266.583 73.9602Z" fill="white"/>
<g opacity="0.9">
<path d="M122.301 60.6012C131.303 60.6012 138.601 53.3032 138.601 44.3006C138.601 35.298 131.303 28 122.301 28C113.298 28 106 35.298 106 44.3006C106 53.3032 113.298 60.6012 122.301 60.6012Z" fill="#FFBD48"/>
<g opacity="0.5">
<path d="M138.601 44.3006C138.601 46.1696 138.293 47.9735 137.707 49.6475C137.204 51.0939 136.505 52.4428 135.643 53.6779C134.961 54.6693 134.165 55.5631 133.271 56.3757C133.108 56.5382 132.929 56.6845 132.751 56.8308C132.474 57.0583 132.198 57.2696 131.906 57.4809C130.508 58.5047 128.931 59.3011 127.241 59.8374C125.681 60.3412 124.023 60.6012 122.301 60.6012C113.297 60.6012 106 53.3041 106 44.3006C106 41.8466 106.536 39.5063 107.528 37.4261C107.772 36.906 108.032 36.4022 108.34 35.9147C109.25 34.4032 110.388 33.0543 111.721 31.933C112.16 31.5429 112.631 31.1854 113.118 30.8603C113.151 30.8441 113.167 30.8278 113.2 30.7953C114.159 30.1453 115.182 29.5927 116.288 29.1701C118.156 28.4226 120.188 28.0163 122.317 28.0163C131.304 28 138.601 35.2971 138.601 44.3006Z" fill="#FED085"/>
</g>
<path d="M122.301 57.432C129.553 57.432 135.432 51.5529 135.432 44.3006C135.432 37.0482 129.553 31.1691 122.301 31.1691C115.048 31.1691 109.169 37.0482 109.169 44.3006C109.169 51.5529 115.048 57.432 122.301 57.432Z" fill="#FFAB3E"/>
<path d="M122.301 55.9694C128.718 55.9694 133.921 50.7669 133.921 44.3493C133.921 37.9317 128.718 32.7292 122.301 32.7292C115.883 32.7292 110.681 37.9317 110.681 44.3493C110.681 50.7669 115.883 55.9694 122.301 55.9694Z" fill="#FFBD48"/>
<path d="M126.217 48.7211C125.892 49.2087 125.437 49.5825 124.852 49.875C124.267 50.1675 123.585 50.3301 122.804 50.3788V51.5815C122.804 51.7277 122.756 51.8415 122.658 51.939C122.561 52.0365 122.431 52.0853 122.284 52.0853C122.138 52.0853 122.024 52.0365 121.927 51.9552C121.829 51.8577 121.781 51.744 121.781 51.5815V50.3788C120.562 50.2976 119.44 50.0375 118.384 49.5825C118.254 49.5337 118.14 49.4362 118.043 49.3062C117.945 49.1762 117.913 49.0462 117.913 48.8999C117.913 48.7049 117.978 48.5424 118.108 48.3961C118.238 48.2498 118.4 48.1848 118.611 48.1848C118.725 48.1848 118.823 48.2011 118.936 48.2498C119.847 48.6561 120.805 48.8837 121.797 48.9162V45.0482C121.033 44.8532 120.399 44.6257 119.863 44.3981C119.343 44.1706 118.904 43.8293 118.563 43.3905C118.221 42.9517 118.043 42.4154 118.043 41.7491C118.043 41.164 118.189 40.6277 118.465 40.1402C118.758 39.6526 119.18 39.2301 119.749 38.905C120.318 38.58 121 38.385 121.797 38.32V37.1498C121.797 37.0036 121.846 36.8735 121.943 36.776C122.041 36.6785 122.154 36.6298 122.301 36.6298C122.447 36.6298 122.577 36.6785 122.674 36.776C122.772 36.8735 122.821 37.0036 122.821 37.1498V38.3037C123.926 38.3525 124.901 38.5312 125.746 38.8563C126.055 38.97 126.217 39.1976 126.217 39.5226C126.217 39.7014 126.152 39.8639 126.039 40.0101C125.909 40.1564 125.746 40.2214 125.551 40.2214C125.486 40.2214 125.388 40.2052 125.275 40.1564C124.511 39.8801 123.698 39.7339 122.821 39.7014V43.6993C123.633 43.8943 124.3 44.1056 124.836 44.3169C125.372 44.5444 125.811 44.8694 126.169 45.3245C126.526 45.7633 126.705 46.3484 126.705 47.0797C126.689 47.6973 126.526 48.2336 126.217 48.7211ZM120.123 42.773C120.497 43.0492 121.049 43.2768 121.781 43.4555V39.7501C121.114 39.8476 120.562 40.0426 120.172 40.3677C119.765 40.6927 119.57 41.099 119.57 41.6191C119.554 42.1229 119.749 42.5129 120.123 42.773ZM125.177 46.9984C125.177 46.5596 124.982 46.2183 124.576 45.9746C124.186 45.7308 123.585 45.5033 122.804 45.292V48.9162C124.381 48.8024 125.177 48.1686 125.177 46.9984Z" fill="white"/>
</g>
<path d="M20.6994 121.399C32.1314 121.399 41.3988 112.131 41.3988 100.699C41.3988 89.2674 32.1314 80 20.6994 80C9.26742 80 0 89.2674 0 100.699C0 112.131 9.26742 121.399 20.6994 121.399Z" fill="#FFBD48"/>
<g opacity="0.5">
<path d="M41.3989 100.699C41.3989 103.073 41.0068 105.364 40.2639 107.489C39.6241 109.326 38.7367 111.039 37.6429 112.607C36.7761 113.866 35.7649 115.001 34.6298 116.033C34.4234 116.239 34.1964 116.425 33.9694 116.611C33.6186 116.9 33.2678 117.168 32.8963 117.436C31.1215 118.737 29.1196 119.748 26.9733 120.429C24.9921 121.069 22.8871 121.399 20.6995 121.399C9.26634 121.399 0.00012207 112.133 0.00012207 100.699C0.00012207 97.5832 0.681164 94.6114 1.94005 91.9698C2.24961 91.3094 2.57981 90.6696 2.97193 90.0505C4.12763 88.1312 5.57223 86.4183 7.26451 84.9943C7.82172 84.499 8.4202 84.045 9.03933 83.6322C9.0806 83.6116 9.10124 83.591 9.14252 83.5497C10.3601 82.7242 11.6603 82.0225 13.0636 81.4859C15.437 80.5366 18.0167 80.0207 20.7202 80.0207C32.1327 80 41.3989 89.2663 41.3989 100.699Z" fill="#FED085"/>
</g>
<path d="M20.6992 117.374C29.9086 117.374 37.3744 109.909 37.3744 100.699C37.3744 91.49 29.9086 84.0243 20.6992 84.0243C11.4898 84.0243 4.02417 91.49 4.02417 100.699C4.02417 109.909 11.4898 117.374 20.6992 117.374Z" fill="#FFAB3E"/>
<path d="M20.6997 115.517C28.8491 115.517 35.4555 108.911 35.4555 100.761C35.4555 92.6119 28.8491 86.0055 20.6997 86.0055C12.5502 86.0055 5.94385 92.6119 5.94385 100.761C5.94385 108.911 12.5502 115.517 20.6997 115.517Z" fill="#FFBD48"/>
<path d="M25.6732 106.313C25.2605 106.932 24.6826 107.407 23.9397 107.778C23.1967 108.15 22.3299 108.356 21.3393 108.418V109.945C21.3393 110.131 21.2774 110.275 21.1536 110.399C21.0298 110.523 20.8647 110.585 20.6789 110.585C20.4932 110.585 20.3487 110.523 20.2249 110.42C20.1011 110.296 20.0392 110.151 20.0392 109.945V108.418C18.4914 108.315 17.0674 107.984 15.7259 107.407C15.5608 107.345 15.4164 107.221 15.2926 107.056C15.1687 106.891 15.1274 106.726 15.1274 106.54C15.1274 106.292 15.21 106.086 15.3751 105.9C15.5402 105.714 15.7466 105.632 16.0149 105.632C16.1593 105.632 16.2832 105.652 16.4276 105.714C17.5833 106.23 18.8009 106.519 20.0598 106.56V101.649C19.0898 101.401 18.285 101.112 17.6039 100.823C16.9435 100.534 16.3863 100.101 15.9529 99.5437C15.5196 98.9865 15.2926 98.3054 15.2926 97.4593C15.2926 96.7164 15.4783 96.0353 15.8291 95.4162C16.2006 94.7971 16.7372 94.2605 17.4595 93.8477C18.1818 93.435 19.0486 93.1874 20.0598 93.1048V91.6189C20.0598 91.4332 20.1217 91.2681 20.2455 91.1442C20.3694 91.0204 20.5138 90.9585 20.6996 90.9585C20.8853 90.9585 21.0504 91.0204 21.1742 91.1442C21.2981 91.2681 21.36 91.4332 21.36 91.6189V93.0842C22.7633 93.1461 24.0016 93.3731 25.0747 93.7858C25.4668 93.9303 25.6732 94.2192 25.6732 94.632C25.6732 94.859 25.5907 95.0654 25.4462 95.2511C25.2811 95.4368 25.0747 95.5194 24.8271 95.5194C24.7445 95.5194 24.6207 95.4987 24.4762 95.4368C23.5063 95.086 22.4744 94.9003 21.36 94.859V99.9358C22.3919 100.183 23.238 100.452 23.919 100.72C24.6001 101.009 25.1573 101.422 25.6113 102C26.0653 102.557 26.2923 103.3 26.2923 104.228C26.2717 105.013 26.0653 105.694 25.6732 106.313ZM17.9342 98.7595C18.4088 99.1103 19.1105 99.3992 20.0392 99.6262V94.9209C19.193 95.0447 18.4914 95.2924 17.9961 95.7051C17.4801 96.1179 17.2325 96.6338 17.2325 97.2942C17.2118 97.934 17.4595 98.4293 17.9342 98.7595ZM24.3524 104.125C24.3524 103.568 24.1048 103.135 23.5888 102.825C23.0935 102.515 22.3299 102.227 21.3393 101.958V106.56C23.3412 106.416 24.3524 105.611 24.3524 104.125Z" fill="white"/>
<g opacity="0.6">
<path d="M365.699 34.3988C372.713 34.3988 378.399 28.7131 378.399 21.6994C378.399 14.6857 372.713 9 365.699 9C358.686 9 353 14.6857 353 21.6994C353 28.7131 358.686 34.3988 365.699 34.3988Z" fill="#FFBD48"/>
<g opacity="0.5">
<path d="M378.399 21.6995C378.399 23.1555 378.158 24.5609 377.702 25.8651C377.31 26.9919 376.765 28.0428 376.094 29.0051C375.563 29.7774 374.942 30.4738 374.246 31.1069C374.119 31.2335 373.98 31.3475 373.841 31.4614C373.625 31.6387 373.41 31.8033 373.182 31.9679C372.093 32.7655 370.865 33.3859 369.548 33.8038C368.333 34.1963 367.042 34.3989 365.699 34.3989C358.685 34.3989 353 28.7139 353 21.6995C353 19.7876 353.418 17.9643 354.19 16.3437C354.38 15.9385 354.583 15.546 354.823 15.1662C355.532 13.9887 356.419 12.9378 357.457 12.0641C357.799 11.7602 358.166 11.4817 358.546 11.2285C358.571 11.2158 358.584 11.2031 358.609 11.1778C359.356 10.6714 360.154 10.2409 361.015 9.91168C362.471 9.32926 364.053 9.01272 365.712 9.01272C372.714 9.00006 378.399 14.685 378.399 21.6995Z" fill="#FED085"/>
</g>
<path d="M365.699 31.9298C371.35 31.9298 375.93 27.3495 375.93 21.6994C375.93 16.0493 371.35 11.469 365.699 11.469C360.049 11.469 355.469 16.0493 355.469 21.6994C355.469 27.3495 360.049 31.9298 365.699 31.9298Z" fill="#FFAB3E"/>
<path d="M365.7 30.7903C370.699 30.7903 374.752 26.7372 374.752 21.7374C374.752 16.7376 370.699 12.6844 365.7 12.6844C360.7 12.6844 356.647 16.7376 356.647 21.7374C356.647 26.7372 360.7 30.7903 365.7 30.7903Z" fill="#FFBD48"/>
<path d="M368.751 25.1434C368.498 25.5232 368.143 25.8144 367.687 26.0423C367.232 26.2702 366.7 26.3968 366.092 26.4348V27.3718C366.092 27.4857 366.054 27.5744 365.978 27.6503C365.902 27.7263 365.801 27.7643 365.687 27.7643C365.573 27.7643 365.484 27.7263 365.408 27.663C365.332 27.587 365.294 27.4984 365.294 27.3718V26.4348C364.345 26.3715 363.471 26.1689 362.648 25.8144C362.547 25.7764 362.458 25.7005 362.382 25.5992C362.306 25.4979 362.281 25.3966 362.281 25.2826C362.281 25.1307 362.332 25.0041 362.433 24.8901C362.534 24.7762 362.661 24.7255 362.825 24.7255C362.914 24.7255 362.99 24.7382 363.079 24.7762C363.788 25.0927 364.535 25.27 365.307 25.2953V22.2819C364.712 22.1299 364.218 21.9527 363.8 21.7754C363.395 21.5982 363.053 21.3323 362.787 20.9904C362.522 20.6486 362.382 20.2307 362.382 19.7116C362.382 19.2558 362.496 18.838 362.711 18.4581C362.939 18.0783 363.269 17.7491 363.712 17.4959C364.155 17.2426 364.687 17.0907 365.307 17.0401V16.1284C365.307 16.0145 365.345 15.9132 365.421 15.8372C365.497 15.7613 365.586 15.7233 365.7 15.7233C365.813 15.7233 365.915 15.7613 365.991 15.8372C366.067 15.9132 366.105 16.0145 366.105 16.1284V17.0274C366.966 17.0654 367.725 17.2047 368.384 17.4579C368.624 17.5465 368.751 17.7238 368.751 17.977C368.751 18.1163 368.7 18.2429 368.612 18.3568C368.51 18.4708 368.384 18.5214 368.232 18.5214C368.181 18.5214 368.105 18.5088 368.017 18.4708C367.421 18.2556 366.788 18.1416 366.105 18.1163V21.231C366.738 21.3829 367.257 21.5475 367.675 21.7121C368.093 21.8894 368.434 22.1426 368.713 22.4971C368.992 22.839 369.131 23.2948 369.131 23.8646C369.118 24.3457 368.992 24.7635 368.751 25.1434ZM364.003 20.5093C364.294 20.7245 364.725 20.9018 365.294 21.0411V18.1543C364.775 18.2302 364.345 18.3822 364.041 18.6354C363.724 18.8886 363.572 19.2052 363.572 19.6103C363.56 20.0028 363.712 20.3067 364.003 20.5093ZM367.941 23.8013C367.941 23.4594 367.789 23.1935 367.472 23.0036C367.168 22.8137 366.7 22.6364 366.092 22.4718V25.2953C367.32 25.2067 367.941 24.7129 367.941 23.8013Z" fill="white"/>
</g>
<path d="M408.699 108.399C415.713 108.399 421.399 102.713 421.399 95.6994C421.399 88.6857 415.713 83 408.699 83C401.686 83 396 88.6857 396 95.6994C396 102.713 401.686 108.399 408.699 108.399Z" fill="#FFBD48"/>
<g opacity="0.5">
<path d="M421.399 95.6995C421.399 97.1555 421.158 98.5609 420.702 99.8651C420.31 100.992 419.765 102.043 419.094 103.005C418.563 103.777 417.942 104.474 417.246 105.107C417.119 105.234 416.98 105.347 416.841 105.461C416.625 105.639 416.41 105.803 416.182 105.968C415.093 106.766 413.865 107.386 412.548 107.804C411.333 108.196 410.042 108.399 408.699 108.399C401.685 108.399 396 102.714 396 95.6995C396 93.7876 396.418 91.9643 397.19 90.3437C397.38 89.9385 397.583 89.546 397.823 89.1662C398.532 87.9887 399.419 86.9378 400.457 86.0641C400.799 85.7602 401.166 85.4817 401.546 85.2285C401.571 85.2158 401.584 85.2031 401.609 85.1778C402.356 84.6714 403.154 84.2409 404.015 83.9117C405.471 83.3293 407.053 83.0127 408.712 83.0127C415.714 83.0001 421.399 88.685 421.399 95.6995Z" fill="#FED085"/>
</g>
<path d="M408.699 105.93C414.35 105.93 418.93 101.35 418.93 95.6994C418.93 90.0493 414.35 85.469 408.699 85.469C403.049 85.469 398.469 90.0493 398.469 95.6994C398.469 101.35 403.049 105.93 408.699 105.93Z" fill="#FFAB3E"/>
<path d="M408.7 104.79C413.699 104.79 417.752 100.737 417.752 95.7374C417.752 90.7376 413.699 86.6844 408.7 86.6844C403.7 86.6844 399.647 90.7376 399.647 95.7374C399.647 100.737 403.7 104.79 408.7 104.79Z" fill="#FFBD48"/>
<path d="M411.751 99.1434C411.498 99.5232 411.143 99.8144 410.687 100.042C410.232 100.27 409.7 100.397 409.092 100.435V101.372C409.092 101.486 409.054 101.574 408.978 101.65C408.902 101.726 408.801 101.764 408.687 101.764C408.573 101.764 408.484 101.726 408.408 101.663C408.332 101.587 408.294 101.498 408.294 101.372V100.435C407.345 100.372 406.471 100.169 405.648 99.8144C405.547 99.7764 405.458 99.7005 405.382 99.5992C405.306 99.4979 405.281 99.3966 405.281 99.2826C405.281 99.1307 405.332 99.0041 405.433 98.8901C405.534 98.7762 405.661 98.7255 405.825 98.7255C405.914 98.7255 405.99 98.7382 406.079 98.7762C406.788 99.0927 407.535 99.27 408.307 99.2953V96.2819C407.712 96.1299 407.218 95.9527 406.8 95.7754C406.395 95.5982 406.053 95.3323 405.787 94.9904C405.522 94.6486 405.382 94.2307 405.382 93.7116C405.382 93.2558 405.496 92.838 405.711 92.4581C405.939 92.0783 406.269 91.7491 406.712 91.4959C407.155 91.2426 407.687 91.0907 408.307 91.0401V90.1284C408.307 90.0145 408.345 89.9132 408.421 89.8372C408.497 89.7613 408.586 89.7233 408.7 89.7233C408.813 89.7233 408.915 89.7613 408.991 89.8372C409.067 89.9132 409.105 90.0145 409.105 90.1284V91.0274C409.966 91.0654 410.725 91.2047 411.384 91.4579C411.624 91.5465 411.751 91.7238 411.751 91.977C411.751 92.1163 411.7 92.2429 411.612 92.3568C411.51 92.4708 411.384 92.5214 411.232 92.5214C411.181 92.5214 411.105 92.5088 411.017 92.4708C410.421 92.2556 409.788 92.1416 409.105 92.1163V95.231C409.738 95.3829 410.257 95.5475 410.675 95.7121C411.093 95.8894 411.434 96.1426 411.713 96.4971C411.992 96.839 412.131 97.2948 412.131 97.8646C412.118 98.3457 411.992 98.7635 411.751 99.1434ZM407.003 94.5093C407.294 94.7245 407.725 94.9018 408.294 95.0411V92.1543C407.775 92.2302 407.345 92.3822 407.041 92.6354C406.724 92.8886 406.572 93.2052 406.572 93.6103C406.56 94.0028 406.712 94.3067 407.003 94.5093ZM410.941 97.8013C410.941 97.4594 410.789 97.1935 410.472 97.0036C410.168 96.8137 409.7 96.6364 409.092 96.4718V99.2953C410.32 99.2067 410.941 98.7129 410.941 97.8013Z" fill="white"/>
<g opacity="0.8">
<path d="M34.6994 25.3988C41.7131 25.3988 47.3988 19.7131 47.3988 12.6994C47.3988 5.68572 41.7131 0 34.6994 0C27.6857 0 22 5.68572 22 12.6994C22 19.7131 27.6857 25.3988 34.6994 25.3988Z" fill="#FFBD48"/>
<g opacity="0.5">
<path d="M47.3988 12.6995C47.3988 14.1555 47.1582 15.5609 46.7024 16.8651C46.3099 17.9919 45.7655 19.0428 45.0944 20.0051C44.5627 20.7774 43.9422 21.4738 43.2459 22.1069C43.1192 22.2335 42.98 22.3475 42.8407 22.4614C42.6255 22.6387 42.4102 22.8033 42.1823 22.9679C41.0934 23.7655 39.8653 24.3859 38.5485 24.8038C37.333 25.1963 36.0415 25.3989 34.6994 25.3989C27.685 25.3989 22 19.7139 22 12.6995C22 10.7876 22.4178 8.96434 23.1902 7.34368C23.3801 6.93852 23.5827 6.54601 23.8232 6.16617C24.5323 4.98866 25.4186 3.93776 26.4568 3.06412C26.7987 2.76025 27.1659 2.48169 27.5457 2.22846C27.571 2.2158 27.5837 2.20315 27.609 2.17782C28.356 1.67137 29.1537 1.24088 30.0147 0.911682C31.4707 0.329257 33.0534 0.0127164 34.7121 0.0127164C41.7138 5.50011e-05 47.3988 5.68503 47.3988 12.6995Z" fill="#FED085"/>
</g>
<path d="M34.6994 22.9298C40.3495 22.9298 44.9298 18.3495 44.9298 12.6994C44.9298 7.04931 40.3495 2.46899 34.6994 2.46899C29.0493 2.46899 24.469 7.04931 24.469 12.6994C24.469 18.3495 29.0493 22.9298 34.6994 22.9298Z" fill="#FFAB3E"/>
<path d="M34.6995 21.7903C39.6993 21.7903 43.7524 17.7372 43.7524 12.7374C43.7524 7.73758 39.6993 3.68445 34.6995 3.68445C29.6997 3.68445 25.6466 7.73758 25.6466 12.7374C25.6466 17.7372 29.6997 21.7903 34.6995 21.7903Z" fill="#FFBD48"/>
<path d="M37.7509 16.1434C37.4977 16.5232 37.1431 16.8144 36.6873 17.0423C36.2315 17.2702 35.6997 17.3968 35.092 17.4348V18.3718C35.092 18.4857 35.054 18.5744 34.978 18.6503C34.9021 18.7263 34.8008 18.7643 34.6868 18.7643C34.5729 18.7643 34.4842 18.7263 34.4083 18.663C34.3323 18.587 34.2943 18.4984 34.2943 18.3718V17.4348C33.3447 17.3715 32.4711 17.1689 31.6481 16.8144C31.5468 16.7764 31.4581 16.7005 31.3822 16.5992C31.3062 16.4979 31.2809 16.3966 31.2809 16.2826C31.2809 16.1307 31.3315 16.0041 31.4328 15.8901C31.5341 15.7762 31.6607 15.7255 31.8253 15.7255C31.914 15.7255 31.9899 15.7382 32.0786 15.7762C32.7876 16.0927 33.5346 16.27 34.307 16.2953V13.2819C33.7119 13.1299 33.2181 12.9527 32.8003 12.7754C32.3951 12.5982 32.0532 12.3323 31.7873 11.9904C31.5215 11.6486 31.3822 11.2307 31.3822 10.7116C31.3822 10.2558 31.4961 9.83798 31.7114 9.45814C31.9393 9.0783 32.2685 8.74909 32.7116 8.49587C33.1548 8.24264 33.6866 8.0907 34.307 8.04006V7.12843C34.307 7.01448 34.345 6.91319 34.4209 6.83722C34.4969 6.76125 34.5855 6.72327 34.6995 6.72327C34.8134 6.72327 34.9147 6.76125 34.9907 6.83722C35.0667 6.91319 35.1046 7.01448 35.1046 7.12843V8.02739C35.9656 8.06538 36.7253 8.20465 37.3837 8.45788C37.6243 8.54651 37.7509 8.72377 37.7509 8.977C37.7509 9.11627 37.7002 9.24289 37.6116 9.35684C37.5103 9.47079 37.3837 9.52145 37.2318 9.52145C37.1811 9.52145 37.1051 9.50878 37.0165 9.4708C36.4214 9.25555 35.7884 9.1416 35.1046 9.11628V12.231C35.7377 12.3829 36.2568 12.5475 36.6747 12.7121C37.0925 12.8894 37.4343 13.1426 37.7129 13.4971C37.9914 13.839 38.1307 14.2948 38.1307 14.8646C38.1181 15.3457 37.9914 15.7635 37.7509 16.1434ZM33.0028 11.5093C33.2941 11.7245 33.7245 11.9018 34.2943 12.0411V9.15426C33.7752 9.23023 33.3447 9.38216 33.0408 9.63539C32.7243 9.88862 32.5724 10.2052 32.5724 10.6103C32.5597 11.0028 32.7116 11.3067 33.0028 11.5093ZM36.9405 14.8013C36.9405 14.4594 36.7886 14.1935 36.4721 14.0036C36.1682 13.8137 35.6997 13.6364 35.092 13.4718V16.2953C36.3201 16.2067 36.9405 15.7129 36.9405 14.8013Z" fill="white"/>
</g>
<path d="M314.301 99C325.18 99 334 90.1803 334 79.3006C334 68.4209 325.18 59.6012 314.301 59.6012C303.421 59.6012 294.601 68.4209 294.601 79.3006C294.601 90.1803 303.421 99 314.301 99Z" fill="#FFBD48"/>
<g opacity="0.5">
<path d="M334 79.3006C334 81.5593 333.627 83.7394 332.92 85.7624C332.311 87.5104 331.467 89.1405 330.426 90.6332C329.601 91.8313 328.638 92.9115 327.558 93.8935C327.362 94.0899 327.146 94.2667 326.93 94.4435C326.596 94.7184 326.262 94.9738 325.908 95.2291C324.219 96.4664 322.314 97.4288 320.271 98.0769C318.386 98.6858 316.383 99 314.301 99C303.42 99 294.601 90.1815 294.601 79.3006C294.601 76.3349 295.249 73.5067 296.448 70.9927C296.742 70.3642 297.056 69.7554 297.43 69.1662C298.529 67.3396 299.904 65.7094 301.515 64.3542C302.045 63.8829 302.615 63.4508 303.204 63.058C303.243 63.0383 303.263 63.0187 303.302 62.9794C304.461 62.1938 305.698 61.526 307.034 61.0154C309.292 60.1119 311.747 59.6209 314.32 59.6209C325.182 59.6012 334 68.4198 334 79.3006Z" fill="#FED085"/>
</g>
<path d="M314.301 95.17C323.065 95.17 330.17 88.065 330.17 79.3005C330.17 70.536 323.065 63.431 314.301 63.431C305.536 63.431 298.431 70.536 298.431 79.3005C298.431 88.065 305.536 95.17 314.301 95.17Z" fill="#FFAB3E"/>
<path d="M314.301 93.4024C322.057 93.4024 328.344 87.1152 328.344 79.3595C328.344 71.6038 322.057 65.3165 314.301 65.3165C306.545 65.3165 300.258 71.6038 300.258 79.3595C300.258 87.1152 306.545 93.4024 314.301 93.4024Z" fill="#FFBD48"/>
<path d="M319.034 84.6428C318.641 85.232 318.091 85.6837 317.384 86.0373C316.677 86.3908 315.852 86.5872 314.91 86.6461V88.0995C314.91 88.2763 314.851 88.4138 314.733 88.5316C314.615 88.6495 314.458 88.7084 314.281 88.7084C314.104 88.7084 313.967 88.6495 313.849 88.5512C313.731 88.4334 313.672 88.2959 313.672 88.0995V86.6461C312.199 86.5479 310.844 86.2337 309.567 85.6837C309.41 85.6248 309.273 85.507 309.155 85.3499C309.037 85.1927 308.998 85.0356 308.998 84.8588C308.998 84.6232 309.076 84.4268 309.234 84.25C309.391 84.0732 309.587 83.9947 309.842 83.9947C309.98 83.9947 310.098 84.0143 310.235 84.0732C311.335 84.5642 312.494 84.8392 313.692 84.8785V80.204C312.769 79.9684 312.003 79.6934 311.355 79.4184C310.726 79.1435 310.196 78.731 309.783 78.2007C309.371 77.6704 309.155 77.0223 309.155 76.217C309.155 75.51 309.332 74.8618 309.666 74.2726C310.019 73.6834 310.53 73.1728 311.217 72.7799C311.905 72.3871 312.729 72.1515 313.692 72.0729V70.6588C313.692 70.482 313.751 70.3249 313.869 70.207C313.986 70.0892 314.124 70.0303 314.301 70.0303C314.477 70.0303 314.635 70.0892 314.752 70.207C314.87 70.3249 314.929 70.482 314.929 70.6588V72.0532C316.265 72.1122 317.443 72.3282 318.465 72.721C318.838 72.8585 319.034 73.1335 319.034 73.5263C319.034 73.7423 318.956 73.9387 318.818 74.1155C318.661 74.2923 318.465 74.3708 318.229 74.3708C318.15 74.3708 318.032 74.3512 317.895 74.2923C316.972 73.9584 315.99 73.7816 314.929 73.7423V78.5739C315.911 78.8096 316.717 79.0649 317.365 79.3202C318.013 79.5952 318.543 79.988 318.975 80.5379C319.407 81.0682 319.623 81.7753 319.623 82.6591C319.604 83.4054 319.407 84.0536 319.034 84.6428ZM311.669 77.4544C312.121 77.7883 312.788 78.0632 313.672 78.2793V73.8012C312.867 73.9191 312.199 74.1548 311.728 74.5476C311.237 74.9404 311.001 75.4314 311.001 76.0599C310.982 76.6688 311.217 77.1401 311.669 77.4544ZM317.777 82.5609C317.777 82.0306 317.541 81.6182 317.05 81.3236C316.579 81.0289 315.852 80.754 314.91 80.4986V84.8785C316.815 84.741 317.777 83.975 317.777 82.5609Z" fill="white"/>
</svg>
