<svg width="80" height="80" viewBox="0 0 80 80" fill="none" xmlns="http://www.w3.org/2000/svg">
<rect width="80" height="80" rx="12" fill="#F2DEFF"/>
<path d="M56.6668 38.4667V40.0001C56.6648 43.5941 55.501 47.0912 53.3491 49.9698C51.1971 52.8484 48.1723 54.9542 44.7258 55.9732C41.2792 56.9923 37.5956 56.8699 34.2243 55.6244C30.853 54.3788 27.9746 52.0769 26.0184 49.0618C24.0623 46.0468 23.1331 42.4802 23.3696 38.8939C23.6061 35.3077 24.9955 31.8939 27.3306 29.1618C29.6658 26.4298 32.8215 24.5257 36.3271 23.7336C39.8328 22.9416 43.5006 23.304 46.7835 24.7667" stroke="#6E209D" stroke-width="2" stroke-linecap="round" stroke-linejoin="round"/>
<path d="M46.0869 39.1305H33.913C32.9525 39.1305 32.1738 39.9091 32.1738 40.8696V46.9566C32.1738 47.9171 32.9525 48.6957 33.913 48.6957H46.0869C47.0474 48.6957 47.826 47.9171 47.826 46.9566V40.8696C47.826 39.9091 47.0474 39.1305 46.0869 39.1305Z" stroke="#6E209D" stroke-width="2" stroke-linecap="round" stroke-linejoin="round"/>
<path d="M35.6523 39.1304V35.6521C35.6523 34.499 36.1104 33.3931 36.9258 32.5778C37.7412 31.7624 38.8471 31.3043 40.0002 31.3043C41.1533 31.3043 42.2592 31.7624 43.0745 32.5778C43.8899 33.3931 44.348 34.499 44.348 35.6521V39.1304" stroke="#6E209D" stroke-width="2" stroke-linecap="round" stroke-linejoin="round"/>
</svg>
