<svg width="80" height="80" viewBox="0 0 80 80" fill="none" xmlns="http://www.w3.org/2000/svg">
<rect width="80" height="80" rx="12" fill="#E0FFE5"/>
<path d="M57.7657 36.6495V31.2678C57.7657 27.7541 52.9621 27.2203 52.9621 27.2203H24.986C22.5397 27.2203 20.1824 28.5991 20.0045 31.2678V55.1075C20.0045 55.1075 19.6487 60 25.2528 60H52.9621C52.9621 60 57.7657 59.6442 57.7657 55.7747V50.4374" stroke="#279D3A" stroke-width="2" stroke-miterlimit="10"/>
<path d="M44.867 40.3411C44.867 40.3411 44.5112 36.8274 47.6691 36.8274H59.5445C59.5445 36.8274 60.8788 36.8274 60.8788 38.562V48.4804C60.8788 48.4804 60.9678 50.4819 59.2331 50.4819H48.4697C48.4697 50.4819 44.867 51.1491 44.867 47.6354V40.3411Z" stroke="#279D3A" stroke-width="2" stroke-miterlimit="10"/>
<path d="M50.4711 46.3011C51.8222 46.3011 52.9174 45.2058 52.9174 43.8548C52.9174 42.5038 51.8222 41.4086 50.4711 41.4086C49.1201 41.4086 48.0249 42.5038 48.0249 43.8548C48.0249 45.2058 49.1201 46.3011 50.4711 46.3011Z" stroke="#279D3A" stroke-width="2" stroke-miterlimit="10"/>
<path d="M27.2988 27.2203V49.1031" stroke="#279D3A" stroke-width="2" stroke-miterlimit="10"/>
<path d="M27.2988 51.3269V54.3514" stroke="#279D3A" stroke-width="2" stroke-miterlimit="10"/>
<path d="M21.0718 28.7325V23.8845C21.0718 23.8845 20.3602 20.015 24.8969 20.015H46.6017C46.6017 20.015 50.4713 19.6147 50.4713 22.9505V27.1758" stroke="#279D3A" stroke-width="2" stroke-miterlimit="10"/>
</svg>
