<svg width="80" height="80" viewBox="0 0 80 80" fill="none" xmlns="http://www.w3.org/2000/svg">
<rect width="80" height="80" rx="12" fill="#E3FAFF"/>
<path d="M55.8907 28.1059C52.9659 24.1462 48.6911 21.3113 43.8764 20.3663C37.4417 19.1064 30.3771 21.1313 25.7873 25.9011C21.2875 30.5358 19.1726 37.3755 20.2976 43.7201C20.7026 45.925 21.4675 48.0399 22.5925 49.9748C22.9075 50.4698 23.2224 51.0097 23.5374 51.5047C24.2124 52.4497 24.9773 53.3496 25.7873 54.1596C30.4221 58.7043 37.3517 60.9092 43.7414 59.6493C47.4762 58.9293 50.941 57.0844 53.7308 54.5196C57.6006 51.0548 59.5805 46.105 60.1205 41.0653C60.1205 40.9753 60.1205 40.8853 60.1655 40.7953H53.8658C53.9108 40.7953 53.6408 42.4602 53.6408 42.5502C53.3709 43.9451 52.8759 45.34 52.2009 46.6C50.086 50.6498 45.9912 53.3946 41.4465 53.8446C35.1018 54.5196 28.8021 50.6048 26.7773 44.4851C25.5173 40.6603 25.8773 36.2505 27.9922 32.7857C29.6571 30.0858 32.267 27.926 35.2818 26.846C35.4618 26.801 35.6418 26.711 35.8218 26.666C40.0516 25.3161 44.9113 26.441 48.4211 29.0509C49.0961 29.5459 49.681 30.0408 50.266 30.6258C50.311 30.6708 50.311 30.6708 50.356 30.7158L51.301 31.8857L47.3862 37.5105L60.0755 37.6005V23.0662L55.8907 28.1059Z" stroke="#1288A4" stroke-width="2" stroke-miterlimit="10" stroke-linejoin="round"/>
<path d="M40.3638 32V48" stroke="#1288A4" stroke-width="2" stroke-linecap="round" stroke-linejoin="round"/>
<path d="M44 34.9091H38.5455C37.8704 34.9091 37.2229 35.1772 36.7455 35.6546C36.2682 36.132 36 36.7794 36 37.4545C36 38.1296 36.2682 38.7771 36.7455 39.2544C37.2229 39.7318 37.8704 40 38.5455 40H42.1818C42.8569 40 43.5044 40.2681 43.9817 40.7455C44.4591 41.2229 44.7273 41.8703 44.7273 42.5454C44.7273 43.2205 44.4591 43.868 43.9817 44.3453C43.5044 44.8227 42.8569 45.0909 42.1818 45.0909H36" stroke="#1288A4" stroke-width="2" stroke-linecap="round" stroke-linejoin="round"/>
</svg>
