<svg width="80" height="80" viewBox="0 0 80 80" fill="none" xmlns="http://www.w3.org/2000/svg">
<rect width="80" height="80" rx="12" fill="#FFEADE"/>
<path d="M24.5999 33.421C24.5999 33.421 23.9859 30.0438 27.6701 30.0438H52.4508C52.4508 30.0438 55.1701 30.0438 55.1701 33.114V57.2368C55.1701 57.2368 55.1701 60 51.7929 60H27.3192C27.3192 60 24.5999 59.9122 24.5999 56.6228V33.421Z" stroke="#D96425" stroke-width="2" stroke-miterlimit="10" stroke-linejoin="round"/>
<path d="M20.0384 38.3333V22.7632C20.0384 22.7632 19.4243 20 23.1086 20H57.6261C57.6261 20 59.7752 20 59.7752 22.7632V38.3333" stroke="#D96425" stroke-width="2" stroke-miterlimit="10" stroke-linejoin="round"/>
<path d="M33.8101 30.0438V38.2894C33.8101 38.2894 33.7662 43.1579 39.2487 43.1579H42.4066C42.4066 43.1579 47.2311 43.4649 47.2311 38.2894V30.0438" stroke="#D96425" stroke-width="2" stroke-miterlimit="10" stroke-linejoin="round"/>
<path d="M32.2314 46.272V53.9474" stroke="#D96425" stroke-width="2" stroke-miterlimit="10" stroke-linejoin="round"/>
<path d="M40.7839 38.9474C41.9708 38.9474 42.933 37.9852 42.933 36.7983C42.933 35.6114 41.9708 34.6492 40.7839 34.6492C39.597 34.6492 38.6348 35.6114 38.6348 36.7983C38.6348 37.9852 39.597 38.9474 40.7839 38.9474Z" stroke="#D96425" stroke-width="2" stroke-miterlimit="10" stroke-linejoin="round"/>
</svg>
