<svg width="28" height="28" viewBox="0 0 28 28" fill="none" xmlns="http://www.w3.org/2000/svg">
<circle cx="14" cy="14" r="14" fill="#E0E0E0"/>
<path d="M20 19.75V18.25C20 17.4544 19.6839 16.6913 19.1213 16.1287C18.5587 15.5661 17.7956 15.25 17 15.25H11C10.2044 15.25 9.44129 15.5661 8.87868 16.1287C8.31607 16.6913 8 17.4544 8 18.25V19.75" stroke="#7E7E7E" stroke-width="1.5" stroke-linecap="round" stroke-linejoin="round"/>
<path d="M14 12.25C15.6569 12.25 17 10.9069 17 9.25C17 7.59315 15.6569 6.25 14 6.25C12.3431 6.25 11 7.59315 11 9.25C11 10.9069 12.3431 12.25 14 12.25Z" stroke="#7E7E7E" stroke-width="1.5" stroke-linecap="round" stroke-linejoin="round"/>
</svg>
