<svg width="1365" height="1080" viewBox="0 0 1365 1080" fill="none" xmlns="http://www.w3.org/2000/svg">
<path d="M370.25 880.757C174.478 871.822 41.8451 1010 -6.10352e-05 1080.2H1365V0C1341.16 79.7787 1227.71 234.23 964.558 213.807C635.623 188.278 593.362 445.165 639.445 579.193C692.111 732.368 614.965 891.926 370.25 880.757Z" fill="#EFF3FF"/>
<path d="M824.614 846.801C789.037 980.636 902.325 1058.17 963.416 1080.2L1365 1080.2V676.809C1365 515.585 1192.56 520.982 1143.99 637.683C1076.61 799.581 869.085 679.507 824.614 846.801Z" fill="#DCE5FF"/>
<path d="M1061.34 910.879C997.524 975.81 1034.75 1050.82 1061.34 1080.2H1363.6V803.127C1248.85 955.659 1141.1 829.715 1061.34 910.879Z" fill="#BECFFF"/>
</svg>
