<svg width="332" height="203" viewBox="0 0 332 203" fill="none" xmlns="http://www.w3.org/2000/svg">
<path d="M104.87 202.076C104.847 202.076 104.847 202.076 104.824 202.076C103.137 201.962 101.449 201.711 99.8298 201.346C99.4878 201.278 99.2825 200.936 99.3737 200.594C99.4422 200.252 99.7842 200.046 100.126 200.138C101.7 200.502 103.319 200.731 104.938 200.845C105.28 200.867 105.531 201.164 105.508 201.506C105.486 201.825 105.212 202.076 104.87 202.076ZM109.841 202.008C109.522 202.008 109.248 201.757 109.226 201.437C109.203 201.095 109.454 200.799 109.773 200.753C111.392 200.594 112.988 200.297 114.539 199.887C114.881 199.796 115.201 200.001 115.292 200.32C115.383 200.662 115.178 200.981 114.859 201.073C113.239 201.506 111.552 201.802 109.887 201.962C109.864 202.008 109.841 202.008 109.841 202.008ZM95.2688 199.841C95.2004 199.841 95.1092 199.818 95.0407 199.796C93.49 199.157 91.9848 198.382 90.5481 197.469C90.2516 197.287 90.1604 196.899 90.3429 196.626C90.5253 196.329 90.913 196.238 91.1866 196.42C92.555 197.287 94.0145 198.017 95.4968 198.655C95.8161 198.792 95.953 199.157 95.8389 199.476C95.7249 199.704 95.4968 199.841 95.2688 199.841ZM119.374 199.453C119.146 199.453 118.918 199.317 118.804 199.089C118.667 198.769 118.804 198.404 119.123 198.268C120.583 197.606 122.019 196.808 123.365 195.919C123.639 195.736 124.026 195.805 124.231 196.078C124.414 196.352 124.345 196.74 124.072 196.945C122.681 197.88 121.176 198.701 119.648 199.408C119.534 199.453 119.465 199.453 119.374 199.453ZM86.8764 194.619C86.7396 194.619 86.58 194.573 86.466 194.459C85.2117 193.342 84.0258 192.133 82.9539 190.833C82.7259 190.559 82.7715 190.172 83.0452 189.966C83.3188 189.738 83.7065 189.784 83.9118 190.058C84.938 191.312 86.0783 192.475 87.2869 193.547C87.5378 193.775 87.5606 194.163 87.3325 194.413C87.2185 194.55 87.0589 194.619 86.8764 194.619ZM127.584 193.98C127.424 193.98 127.265 193.912 127.128 193.775C126.9 193.524 126.9 193.136 127.151 192.908C128.336 191.814 129.431 190.605 130.412 189.305C130.617 189.031 131.005 188.986 131.278 189.191C131.552 189.396 131.598 189.784 131.392 190.058C130.366 191.38 129.226 192.657 127.994 193.798C127.88 193.912 127.743 193.98 127.584 193.98ZM80.605 186.979C80.3997 186.979 80.1717 186.865 80.0577 186.66C79.2139 185.2 78.4841 183.672 77.8912 182.099C77.7771 181.779 77.9368 181.414 78.2561 181.3C78.5753 181.186 78.9402 181.346 79.0543 181.665C79.6244 183.17 80.3085 184.653 81.1295 186.044C81.312 186.34 81.1979 186.728 80.9015 186.888C80.8331 186.956 80.719 186.979 80.605 186.979ZM133.604 186.135C133.513 186.135 133.399 186.112 133.308 186.067C133.012 185.907 132.897 185.519 133.057 185.223C133.832 183.786 134.471 182.304 134.996 180.776C135.11 180.457 135.452 180.274 135.794 180.388C136.113 180.502 136.295 180.844 136.181 181.186C135.634 182.783 134.973 184.334 134.175 185.816C134.038 186.021 133.833 186.135 133.604 186.135ZM77.1386 177.743C76.8421 177.743 76.5913 177.538 76.5228 177.241C76.2036 175.599 75.9983 173.912 75.9527 172.224C75.9527 171.882 76.2036 171.585 76.5457 171.585C76.8878 171.563 77.1842 171.836 77.1842 172.178C77.2298 173.798 77.4123 175.417 77.7315 176.99C77.8 177.332 77.5719 177.652 77.2526 177.72C77.2298 177.743 77.1842 177.743 77.1386 177.743ZM136.774 176.785C136.752 176.785 136.706 176.785 136.683 176.785C136.341 176.739 136.113 176.42 136.181 176.078C136.432 174.482 136.569 172.862 136.569 171.243C136.569 170.605 136.546 169.966 136.501 169.35C136.478 169.008 136.729 168.712 137.071 168.689C137.413 168.666 137.709 168.917 137.732 169.259C137.778 169.898 137.801 170.559 137.801 171.221C137.801 172.908 137.664 174.596 137.39 176.26C137.345 176.58 137.071 176.785 136.774 176.785ZM76.8193 167.868C76.7965 167.868 76.7737 167.868 76.7281 167.868C76.386 167.823 76.158 167.503 76.2036 167.161C76.4316 165.496 76.7737 163.832 77.2754 162.212C77.3667 161.893 77.7315 161.711 78.0508 161.802C78.3701 161.893 78.5525 162.258 78.4613 162.577C77.9824 164.128 77.6403 165.724 77.4351 167.321C77.4123 167.64 77.1386 167.868 76.8193 167.868ZM136.41 165.017C136.136 165.017 135.862 164.835 135.817 164.539C135.452 162.965 134.95 161.414 134.334 159.909C134.197 159.59 134.357 159.225 134.676 159.088C134.996 158.951 135.36 159.111 135.497 159.43C136.136 160.981 136.66 162.6 137.025 164.242C137.094 164.584 136.888 164.903 136.569 164.995C136.501 165.017 136.455 165.017 136.41 165.017ZM79.6928 158.427C79.6016 158.427 79.5104 158.404 79.4191 158.358C79.1227 158.199 78.9858 157.834 79.1455 157.537C79.898 156.032 80.7646 154.573 81.7453 153.204C81.9505 152.931 82.3382 152.862 82.6119 153.068C82.8855 153.273 82.9539 153.66 82.7487 153.934C81.8137 155.257 80.9699 156.648 80.2401 158.085C80.1489 158.29 79.9208 158.427 79.6928 158.427ZM132.647 155.895C132.441 155.895 132.236 155.781 132.122 155.599C131.278 154.231 130.298 152.908 129.226 151.699C128.998 151.448 129.021 151.061 129.294 150.833C129.545 150.605 129.933 150.627 130.161 150.901C131.278 152.178 132.282 153.546 133.171 154.96C133.354 155.257 133.262 155.645 132.966 155.804C132.852 155.85 132.738 155.895 132.647 155.895ZM85.4625 150.399C85.3029 150.399 85.1432 150.331 85.0292 150.217C84.7784 149.966 84.7784 149.578 85.0292 149.35C86.2151 148.164 87.515 147.07 88.8833 146.089C89.157 145.884 89.5447 145.952 89.7499 146.226C89.9551 146.5 89.8867 146.887 89.6131 147.093C88.2904 148.028 87.0589 149.099 85.9186 150.24C85.7818 150.331 85.6222 150.399 85.4625 150.399ZM126.124 148.461C125.987 148.461 125.851 148.415 125.737 148.324C124.482 147.298 123.137 146.363 121.746 145.542C121.449 145.359 121.358 144.994 121.518 144.698C121.7 144.402 122.065 144.31 122.361 144.47C123.821 145.314 125.212 146.294 126.512 147.366C126.786 147.594 126.808 147.982 126.603 148.233C126.489 148.37 126.307 148.461 126.124 148.461ZM93.49 144.652C93.2619 144.652 93.0339 144.516 92.9426 144.31C92.783 144.014 92.9199 143.626 93.2163 143.489C94.7215 142.737 96.3178 142.121 97.9142 141.642C98.2335 141.551 98.5984 141.733 98.6896 142.053C98.7808 142.372 98.5984 142.737 98.2791 142.828C96.7283 143.284 95.2232 143.9 93.7637 144.607C93.6952 144.63 93.5812 144.652 93.49 144.652ZM117.595 143.489C117.527 143.489 117.458 143.466 117.367 143.444C115.862 142.874 114.288 142.417 112.692 142.098C112.35 142.03 112.145 141.71 112.213 141.368C112.282 141.026 112.601 140.821 112.943 140.889C114.585 141.209 116.227 141.688 117.8 142.281C118.12 142.395 118.279 142.76 118.165 143.079C118.074 143.352 117.846 143.489 117.595 143.489ZM102.954 141.802C102.658 141.802 102.384 141.574 102.338 141.254C102.293 140.912 102.544 140.593 102.863 140.57C104.528 140.365 106.238 140.274 107.903 140.342C108.245 140.365 108.519 140.639 108.496 140.981C108.496 141.323 108.199 141.596 107.857 141.574C106.261 141.528 104.619 141.596 103 141.802C103 141.802 102.977 141.802 102.954 141.802Z" fill="#ABBDFF"/>
<g opacity="0.3">
<path d="M90.6164 55.4612C90.1147 55.4612 89.613 55.4384 89.1113 55.4156C88.7692 55.3928 88.5183 55.0964 88.5411 54.7543C88.5639 54.4122 88.8604 54.1613 89.2025 54.1842C90.7989 54.2982 92.4408 54.207 93.9916 53.9561C94.3337 53.9105 94.653 54.1385 94.6986 54.4578C94.7442 54.7999 94.5161 55.1192 94.1968 55.1648C93.0338 55.37 91.8251 55.4612 90.6164 55.4612ZM84.2994 54.5034C84.2309 54.5034 84.1853 54.5034 84.1169 54.4806C82.4977 53.9789 80.9242 53.2719 79.4646 52.4053C79.1682 52.2229 79.077 51.858 79.2594 51.5615C79.4418 51.2651 79.8067 51.1739 80.1032 51.3563C81.4715 52.1773 82.9538 52.8386 84.4818 53.3176C84.8011 53.4088 84.9835 53.7737 84.8923 54.0929C84.8011 54.321 84.5502 54.5034 84.2994 54.5034ZM98.8491 53.7965C98.5983 53.7965 98.3702 53.6596 98.279 53.4088C98.1422 53.0895 98.3018 52.7246 98.5983 52.5878C100.081 51.972 101.472 51.1739 102.772 50.216C103.045 50.0108 103.433 50.0792 103.638 50.3529C103.843 50.6265 103.775 51.0142 103.501 51.2195C102.133 52.2229 100.651 53.0667 99.0772 53.728C99.0088 53.7737 98.9403 53.7965 98.8491 53.7965ZM75.8614 49.4635C75.7018 49.4635 75.5421 49.395 75.4281 49.281C74.2194 48.0951 73.1248 46.7724 72.2126 45.3357C72.0301 45.0392 72.1213 44.6744 72.395 44.4691C72.6915 44.2867 73.0564 44.3779 73.2616 44.6516C74.1282 45.9971 75.1316 47.2513 76.2947 48.3916C76.5456 48.6197 76.5456 49.0302 76.2947 49.2582C76.1807 49.395 76.021 49.4635 75.8614 49.4635ZM106.785 47.9811C106.649 47.9811 106.512 47.9355 106.375 47.8443C106.124 47.6162 106.078 47.2285 106.306 46.9777C107.355 45.7462 108.245 44.4007 108.975 42.9868C109.134 42.6903 109.499 42.5535 109.818 42.7131C110.115 42.8727 110.252 43.2376 110.092 43.5569C109.317 45.062 108.382 46.4988 107.264 47.7987C107.127 47.9127 106.945 47.9811 106.785 47.9811ZM70.5934 41.1395C70.3425 41.1395 70.0917 40.9799 70.0005 40.729C69.4531 39.1327 69.0882 37.4451 68.9286 35.7575C68.9058 35.4154 69.1567 35.1189 69.4987 35.0733C69.8408 35.0505 70.1373 35.3014 70.1829 35.6435C70.3425 37.2398 70.6846 38.8134 71.1863 40.3414C71.3004 40.6606 71.1179 41.0255 70.7986 41.1395C70.7302 41.1395 70.6618 41.1395 70.5934 41.1395ZM111.21 39.2011C111.164 39.2011 111.118 39.2011 111.073 39.1783C110.731 39.1099 110.525 38.7678 110.617 38.4257C110.982 36.8749 111.164 35.2558 111.164 33.6594C111.164 32.3367 111.05 31.0368 110.799 29.7597C110.731 29.4176 110.959 29.0984 111.301 29.0299C111.643 28.9615 111.962 29.1896 112.031 29.5317C112.281 30.8772 112.418 32.2683 112.418 33.6594C112.418 35.3698 112.213 37.0802 111.825 38.7222C111.757 39.0186 111.506 39.2011 111.21 39.2011ZM69.6584 31.3561C69.6356 31.3561 69.6128 31.3561 69.5672 31.3561C69.2251 31.3105 68.997 30.9912 69.0426 30.6491C69.2707 28.9615 69.704 27.2967 70.3197 25.7232C70.4338 25.4039 70.7986 25.2443 71.1179 25.3811C71.4372 25.4951 71.5968 25.86 71.46 26.1793C70.8671 27.6616 70.4566 29.2352 70.2513 30.8316C70.2285 31.1508 69.9776 31.3561 69.6584 31.3561ZM109.91 25.5635C109.682 25.5635 109.454 25.4267 109.34 25.1987C108.678 23.7391 107.834 22.348 106.854 21.0937C106.649 20.82 106.694 20.4323 106.968 20.2271C107.241 20.0219 107.629 20.0675 107.834 20.3411C108.883 21.6866 109.773 23.1462 110.457 24.6969C110.594 25.0162 110.457 25.3811 110.138 25.5179C110.092 25.5407 110.001 25.5635 109.91 25.5635ZM73.2388 22.2112C73.1248 22.2112 72.9879 22.1655 72.8739 22.0971C72.6003 21.8919 72.5318 21.5042 72.7143 21.2305C73.6949 19.8394 74.8124 18.5623 76.0895 17.4221C76.3403 17.194 76.728 17.2168 76.9561 17.4677C77.1841 17.7185 77.1613 18.1062 76.9105 18.3343C75.7246 19.4061 74.6527 20.6148 73.7177 21.9375C73.6265 22.1199 73.4441 22.2112 73.2388 22.2112ZM103.889 17.7869C103.752 17.7869 103.615 17.7413 103.501 17.6501C102.247 16.6467 100.879 15.7801 99.4421 15.0959C99.1228 14.9591 99.0088 14.5714 99.1456 14.2749C99.2824 13.9557 99.6701 13.8416 99.9666 13.9785C101.495 14.7082 102.954 15.6204 104.277 16.6923C104.55 16.8975 104.596 17.308 104.368 17.5589C104.254 17.7185 104.072 17.7869 103.889 17.7869ZM80.5821 15.666C80.354 15.666 80.1488 15.552 80.0348 15.3468C79.8751 15.0503 79.9892 14.6626 80.2856 14.503C81.7908 13.682 83.3871 13.0662 85.0291 12.6329C85.3712 12.5417 85.6905 12.747 85.7817 13.0662C85.8729 13.4083 85.6677 13.7276 85.3484 13.8188C83.7976 14.2293 82.2925 14.8223 80.8786 15.5976C80.7645 15.6432 80.6733 15.666 80.5821 15.666ZM94.995 13.568C94.9494 13.568 94.9038 13.568 94.8582 13.5452C93.4671 13.2487 92.0303 13.1119 90.5708 13.1119C90.4112 13.1119 90.2287 13.1119 90.0691 13.1119C89.727 13.1347 89.4305 12.861 89.4305 12.5189C89.4305 12.1768 89.6814 11.9032 90.0235 11.8804C90.2059 11.8804 90.4112 11.8804 90.5936 11.8804C92.0988 11.8804 93.6267 12.04 95.0863 12.3365C95.4283 12.4049 95.6336 12.747 95.5652 13.0662C95.5424 13.3855 95.2915 13.568 94.995 13.568Z" fill="#ABBDFF"/>
</g>
<path opacity="0.15" d="M254.267 159.18C280.578 159.18 301.907 137.85 301.907 111.539C301.907 85.2284 280.578 63.8992 254.267 63.8992C227.956 63.8992 206.626 85.2284 206.626 111.539C206.626 137.85 227.956 159.18 254.267 159.18Z" fill="#4AA0FF"/>
<path opacity="0.15" d="M55 134C85.3757 134 110 109.376 110 79C110 48.6243 85.3757 24 55 24C24.6243 24 0 48.6243 0 79C0 109.376 24.6243 134 55 134Z" fill="#94C6FE"/>
<g opacity="0.3">
<path d="M208.725 130.24C208.223 130.24 207.699 130.217 207.22 130.194C206.878 130.171 206.627 129.875 206.65 129.533C206.672 129.191 206.969 128.94 207.311 128.963C207.79 128.985 208.269 129.008 208.725 129.008C209.865 128.985 210.983 128.917 212.1 128.735C212.442 128.689 212.761 128.917 212.807 129.236C212.853 129.578 212.625 129.898 212.305 129.943C211.119 130.126 209.911 130.24 208.725 130.24ZM202.385 129.259C202.317 129.259 202.271 129.259 202.203 129.236C200.583 128.735 199.01 128.028 197.55 127.161C197.254 126.979 197.163 126.614 197.345 126.317C197.528 126.021 197.892 125.93 198.189 126.112C199.557 126.933 201.04 127.594 202.567 128.073C202.887 128.164 203.069 128.529 202.978 128.849C202.887 129.099 202.659 129.259 202.385 129.259ZM216.958 128.575C216.707 128.575 216.479 128.438 216.388 128.187C216.251 127.868 216.41 127.503 216.707 127.366C218.189 126.751 219.58 125.952 220.88 124.995C221.154 124.789 221.541 124.858 221.747 125.131C221.952 125.405 221.884 125.793 221.61 125.998C220.242 127.001 218.759 127.845 217.186 128.507C217.117 128.552 217.026 128.575 216.958 128.575ZM193.947 124.219C193.787 124.219 193.628 124.151 193.514 124.037C192.305 122.851 191.21 121.528 190.298 120.091C190.116 119.795 190.207 119.43 190.481 119.225C190.777 119.042 191.142 119.134 191.347 119.407C192.214 120.753 193.217 122.007 194.38 123.147C194.631 123.375 194.631 123.786 194.38 124.014C194.266 124.174 194.107 124.219 193.947 124.219ZM224.871 122.76C224.734 122.76 224.597 122.714 224.461 122.623C224.21 122.395 224.164 122.007 224.392 121.756C225.441 120.525 226.331 119.179 227.06 117.765C227.22 117.469 227.585 117.332 227.904 117.492C228.201 117.651 228.337 118.016 228.178 118.335C227.402 119.841 226.467 121.277 225.35 122.577C225.213 122.668 225.053 122.76 224.871 122.76ZM188.679 115.918C188.428 115.918 188.177 115.758 188.086 115.508C187.539 113.911 187.174 112.224 187.014 110.536C186.991 110.194 187.242 109.897 187.584 109.852C187.927 109.829 188.223 110.08 188.269 110.422C188.428 112.018 188.77 113.592 189.272 115.12C189.386 115.439 189.204 115.804 188.884 115.918C188.816 115.918 188.747 115.918 188.679 115.918ZM229.318 113.98C229.272 113.98 229.227 113.98 229.181 113.957C228.839 113.888 228.634 113.546 228.725 113.204C229.09 111.653 229.272 110.057 229.272 108.438C229.272 107.115 229.158 105.815 228.908 104.538C228.839 104.196 229.067 103.877 229.409 103.808C229.751 103.74 230.071 103.968 230.139 104.31C230.39 105.656 230.527 107.047 230.527 108.438C230.527 110.148 230.321 111.859 229.934 113.501C229.843 113.797 229.592 113.98 229.318 113.98ZM187.744 106.135C187.721 106.135 187.698 106.135 187.653 106.135C187.311 106.089 187.083 105.77 187.128 105.428C187.356 103.74 187.79 102.075 188.405 100.502C188.519 100.182 188.884 100.023 189.204 100.16C189.523 100.274 189.683 100.639 189.546 100.958C188.953 102.44 188.542 104.014 188.337 105.61C188.314 105.907 188.063 106.135 187.744 106.135ZM227.995 100.319C227.767 100.319 227.539 100.182 227.425 99.9543C226.764 98.4948 225.92 97.1037 224.939 95.8494C224.734 95.5757 224.78 95.188 225.054 94.9828C225.327 94.7776 225.715 94.8232 225.92 95.0968C226.969 96.4423 227.859 97.9019 228.543 99.4526C228.68 99.7719 228.543 100.137 228.223 100.274C228.178 100.319 228.087 100.319 227.995 100.319ZM191.347 96.9897C191.233 96.9897 191.096 96.9441 190.982 96.8756C190.709 96.6704 190.64 96.2827 190.823 96.009C191.803 94.6179 192.921 93.3408 194.198 92.2006C194.449 91.9725 194.837 91.9953 195.065 92.2462C195.293 92.497 195.27 92.8847 195.019 93.1128C193.833 94.1846 192.761 95.3933 191.826 96.716C191.735 96.8984 191.53 96.9897 191.347 96.9897ZM221.975 92.5654C221.838 92.5654 221.701 92.5198 221.587 92.4286C220.333 91.4252 218.964 90.5586 217.528 89.8744C217.208 89.7376 217.094 89.3499 217.231 89.0534C217.368 88.7342 217.756 88.6201 218.052 88.757C219.58 89.4867 221.04 90.3989 222.362 91.4708C222.636 91.676 222.682 92.0865 222.454 92.3374C222.34 92.4742 222.157 92.5654 221.975 92.5654ZM198.668 90.4217C198.44 90.4217 198.234 90.3077 198.12 90.1025C197.961 89.806 198.075 89.4183 198.371 89.2587C199.876 88.4377 201.473 87.8219 203.115 87.3886C203.434 87.2974 203.776 87.5027 203.867 87.8219C203.959 88.164 203.753 88.4833 203.434 88.5745C201.883 88.985 200.378 89.5779 198.964 90.3533C198.873 90.3989 198.759 90.4217 198.668 90.4217ZM213.104 88.3465C213.058 88.3465 213.012 88.3465 212.967 88.3237C211.416 88.0044 209.774 87.8448 208.178 87.8904C207.836 87.9132 207.539 87.6395 207.539 87.2974C207.539 86.9553 207.79 86.6817 208.132 86.6589C209.82 86.6133 211.553 86.7729 213.195 87.115C213.537 87.1834 213.742 87.5255 213.674 87.8447C213.628 88.1412 213.377 88.3465 213.104 88.3465Z" fill="#ABBDFF"/>
</g>
<path opacity="0.1" d="M211.821 138.013C227.033 122.802 227.033 98.1394 211.821 82.928C196.61 67.7167 171.948 67.7167 156.736 82.928C141.525 98.1394 141.525 122.802 156.736 138.013C171.948 153.224 196.61 153.224 211.821 138.013Z" fill="#94C6FE"/>
<path d="M31.6653 143.335C31.6653 143.335 36.7828 156.171 49.4934 147.392C62.1831 138.613 92.4513 117.685 92.4513 117.685L84.2134 106.993L31.6653 143.335Z" fill="white"/>
<path d="M41.2141 151.012C40.2779 151.012 39.3626 150.887 38.4889 150.616C33.4338 149.098 31.2495 143.772 31.1663 143.543L30.9999 143.148L56.7122 125.362C56.9618 125.195 57.2947 125.258 57.4611 125.507C57.6275 125.757 57.5651 126.09 57.3155 126.256L32.3312 143.522C32.9137 144.729 34.994 148.432 38.7801 149.576C41.8174 150.491 45.3122 149.597 49.1608 146.955C49.4104 146.789 49.7432 146.851 49.9097 147.101C50.0761 147.35 50.0137 147.683 49.7641 147.849C46.7476 149.951 43.8768 151.012 41.2141 151.012Z" fill="#E2E9FF"/>
<path d="M43.5856 75.6844C43.5856 75.6844 32.7889 81.7796 45.333 100.419C57.8772 119.058 63.2651 138.197 49.4728 147.392L130.084 91.661L94.8647 40.2155L43.5856 75.6844Z" fill="#A6C0C9"/>
<path d="M180.135 156.753L132.83 189.455C128.087 192.721 121.742 191.889 118.351 187.541C108.844 175.372 90.8494 152.135 84.0053 142.233C77.1611 132.331 61.7878 107.284 53.7371 94.0949C50.8663 89.3935 52.3225 83.1318 57.0655 79.8657L104.35 47.1636C109.073 43.8976 115.397 44.7297 118.808 49.0359C128.378 61.1431 146.539 84.3384 153.404 94.2405C160.248 104.143 175.538 129.335 183.485 142.566C186.314 147.288 184.858 153.487 180.135 156.753Z" fill="#395680"/>
<path d="M177.868 151.469L134.598 181.405C130.271 184.4 124.342 183.485 121.118 179.324C112.068 167.675 94.9268 145.457 88.3947 136.013C81.8626 126.568 67.1341 102.687 59.4163 90.1216C56.6703 85.6281 57.8976 79.7825 62.2246 76.7869L105.515 46.8516C109.822 43.8768 115.73 44.7505 118.954 48.8903C128.066 60.4567 145.374 82.6325 151.906 92.0978C158.438 101.563 173.083 125.57 180.718 138.176C183.443 142.67 182.195 148.494 177.868 151.469Z" fill="#6A81A5"/>
<path d="M128.086 96.7784L101.188 115.397C97.0068 118.289 91.286 117.248 88.3944 113.067L73.77 91.9314C70.8784 87.75 71.9185 82.0292 76.0999 79.1376L102.998 60.5398C107.179 57.6482 112.9 58.6884 115.792 62.8698L130.416 83.9847C133.308 88.166 132.268 93.9076 128.086 96.7784Z" fill="#2FC4C2"/>
<path d="M113.864 91.5174C116.115 85.0506 112.697 77.9837 106.231 75.7329C99.7638 73.4821 92.6968 76.8999 90.446 83.3666C88.1952 89.8334 91.613 96.9004 98.0798 99.1512C104.547 101.402 111.614 97.9842 113.864 91.5174Z" fill="#69D1D0"/>
<path d="M98.8798 87.2924C99.7951 87.2716 100.71 87.7084 101.376 88.4989C102.063 89.3102 102.375 90.3504 102.229 91.2865C102.104 92.0354 102.604 92.7219 103.332 92.8467C103.748 92.9091 104.143 92.8051 104.434 92.5555C104.663 92.3475 104.829 92.077 104.892 91.7442C105.183 89.9967 104.663 88.1661 103.436 86.7307C102.229 85.3369 100.544 84.5464 98.8174 84.588C98.0685 84.6088 97.4652 85.2121 97.486 85.961C97.5068 86.7099 98.1309 87.3132 98.8798 87.2924Z" fill="white"/>
<path d="M99.1295 94.1573C99.4416 94.1365 99.7328 94.0325 99.9408 93.8453C100.253 93.5749 100.44 93.1796 100.419 92.7427C100.336 90.7041 99.1087 89.2271 97.1324 88.7902C96.4043 88.6238 95.6762 89.1022 95.5098 89.8303C95.3434 90.5584 95.8219 91.2865 96.55 91.453C97.2989 91.6194 97.6733 92.0771 97.7149 92.8676C97.7357 93.6165 98.3806 94.1989 99.1295 94.1573Z" fill="white"/>
<path d="M100.003 82.4037C101.959 82.3829 103.914 83.3607 105.371 85.0665C106.848 86.7931 107.555 89.019 107.243 90.9953C107.118 91.7442 107.638 92.4307 108.366 92.5555C108.782 92.6179 109.157 92.4931 109.448 92.2435C109.698 92.0354 109.864 91.765 109.906 91.4114C110.343 88.6654 109.427 85.6282 107.409 83.2982C105.433 80.9891 102.729 79.6785 99.9619 79.6993C99.213 79.6993 98.6097 80.3234 98.6097 81.0723C98.6305 81.8212 99.2546 82.4245 100.003 82.4037Z" fill="white"/>
<path d="M163.369 147.85L136.325 166.551C133.412 168.569 129.439 167.924 127.296 165.095L102.583 132.351C100.315 129.356 101.001 125.07 104.101 122.949L134.286 102.062C137.386 99.9197 141.671 100.814 143.668 104.018L165.241 138.946C167.071 141.921 166.26 145.832 163.369 147.85Z" fill="#2FC4C2"/>
<path d="M138.197 160.643C138.009 160.768 137.76 160.726 137.614 160.539L110.342 123.073C110.196 122.886 110.238 122.616 110.425 122.491C110.612 122.366 110.862 122.408 111.007 122.595L138.28 160.061C138.426 160.227 138.384 160.498 138.197 160.643Z" fill="white"/>
<path d="M157.211 147.163C157.003 147.288 156.753 147.246 156.628 147.038L131.186 108.303C131.062 108.116 131.124 107.846 131.311 107.721C131.498 107.596 131.769 107.638 131.894 107.846L157.315 146.601C157.44 146.768 157.398 147.017 157.211 147.163Z" fill="white"/>
<path d="M147.704 153.903C147.516 154.028 147.246 153.986 147.121 153.799L120.764 115.688C120.639 115.501 120.681 115.231 120.868 115.106C121.055 114.981 121.326 115.023 121.45 115.21L147.808 153.321C147.933 153.508 147.891 153.758 147.704 153.903Z" fill="white"/>
<path d="M145.083 114.066L111.132 137.531C110.945 137.656 110.675 137.614 110.55 137.427C110.425 137.24 110.467 136.97 110.654 136.845L144.604 113.358C144.791 113.234 145.062 113.275 145.187 113.462C145.311 113.67 145.27 113.92 145.083 114.066Z" fill="white"/>
<path d="M152.426 124.696L118.476 148.162C118.289 148.286 118.018 148.245 117.893 148.058C117.769 147.87 117.81 147.6 117.997 147.475L151.948 123.989C152.135 123.864 152.405 123.905 152.53 124.093C152.655 124.301 152.613 124.55 152.426 124.696Z" fill="white"/>
<path d="M159.645 134.889L125.695 158.355C125.507 158.48 125.237 158.438 125.112 158.251C124.987 158.064 125.029 157.793 125.216 157.669L159.166 134.182C159.354 134.057 159.624 134.099 159.749 134.286C159.874 134.494 159.832 134.744 159.645 134.889Z" fill="white"/>
<path d="M63.6393 81.946L110.051 49.8472C110.051 49.8472 110.841 47.2468 109.343 44.064C106.743 38.572 99.7323 36.8454 94.7188 40.3194L43.5853 75.6843C43.5853 75.6843 55.1933 66.2814 63.6393 81.946Z" fill="#D9EAED"/>
<path d="M43.5853 76.2252C43.4189 76.2252 43.2317 76.142 43.1277 75.9964C42.9613 75.7467 43.0237 75.4139 43.2733 75.2475L94.4068 39.8826C96.9655 38.1143 100.169 37.5527 103.186 38.364C106.119 39.1545 108.532 41.1516 109.822 43.8559C111.403 47.1636 110.695 50.4712 110.675 50.6169C110.612 50.9081 110.321 51.0953 110.03 51.0329C109.738 50.9705 109.551 50.6793 109.614 50.388C109.614 50.3672 110.259 47.2884 108.844 44.3344C107.7 41.9213 105.536 40.1322 102.915 39.4249C100.211 38.6968 97.34 39.1961 95.0309 40.7979L43.8974 76.1628C43.8142 76.1836 43.7102 76.2252 43.5853 76.2252Z" fill="white"/>
<path d="M319.85 125.497H147.972C141.908 125.497 137.015 120.604 137.015 114.539V12.5772C137.015 6.51258 141.908 1.61951 147.972 1.61951H319.85C325.915 1.61951 330.808 6.51258 330.808 12.5772V114.539C330.808 120.569 325.915 125.497 319.85 125.497Z" fill="#FFD48B"/>
<path d="M137.773 13.8522C137.256 13.8522 136.843 13.4387 136.843 12.9218C136.843 5.78898 142.632 0 149.765 0H242.905C243.422 0 243.836 0.413498 243.836 0.930371C243.836 1.44724 243.422 1.86074 242.905 1.86074H149.799C143.7 1.86074 138.738 6.82273 138.738 12.9218C138.738 13.4387 138.324 13.8522 137.773 13.8522Z" fill="#FFBE64"/>
<path d="M330.808 103.65C330.291 103.65 329.877 103.237 329.877 102.72V9.61384C329.877 9.09697 330.291 8.68347 330.808 8.68347C331.325 8.68347 331.738 9.09697 331.738 9.61384V102.72C331.738 103.237 331.325 103.65 330.808 103.65Z" fill="#FFBE64"/>
<path d="M295.212 126.979H146.112C141.012 126.979 136.877 122.844 136.877 117.744V106.373C136.877 105.856 137.29 105.442 137.807 105.442C138.324 105.442 138.737 105.856 138.737 106.373V117.744C138.737 121.81 142.045 125.118 146.112 125.118H295.212C295.729 125.118 296.143 125.531 296.143 126.048C296.143 126.565 295.729 126.979 295.212 126.979Z" fill="#FFBE64"/>
<path d="M330.808 51.8596H137.015V71.2252H330.808V51.8596Z" fill="#FFBE64"/>
<path d="M171.473 28.2213H154.726C152.796 28.2213 151.211 26.6362 151.211 24.7066V15.4718C151.211 13.5421 152.796 11.957 154.726 11.957H171.473C173.402 11.957 174.987 13.5421 174.987 15.4718V24.7066C174.987 26.6362 173.402 28.2213 171.473 28.2213Z" fill="#A4BAFF"/>
<path d="M185.842 28.2213H169.095C167.166 28.2213 165.581 26.6362 165.581 24.7066V15.4718C165.581 13.5421 167.166 11.957 169.095 11.957H185.842C187.772 11.957 189.357 13.5421 189.357 15.4718V24.7066C189.357 26.6362 187.806 28.2213 185.842 28.2213Z" fill="#F24C59"/>
<path d="M177.951 102.479H149.902C148.662 102.479 147.697 101.479 147.697 100.273V99.722C147.697 98.4816 148.696 97.5167 149.902 97.5167H177.951C179.192 97.5167 180.156 98.516 180.156 99.722V100.273C180.156 101.479 179.157 102.479 177.951 102.479Z" fill="white"/>
<path d="M319.298 102.479H291.077C289.905 102.479 288.941 101.514 288.941 100.342V99.6187C288.941 98.4471 289.905 97.4823 291.077 97.4823H319.298C320.47 97.4823 321.435 98.4471 321.435 99.6187V100.342C321.435 101.548 320.47 102.479 319.298 102.479Z" fill="white"/>
<path d="M319.298 94.3811H291.077C289.905 94.3811 288.941 93.4163 288.941 92.2447V91.5211C288.941 90.3495 289.905 89.3846 291.077 89.3846H319.298C320.47 89.3846 321.435 90.3495 321.435 91.5211V92.2447C321.435 93.4163 320.47 94.3811 319.298 94.3811Z" fill="white"/>
<path d="M249.387 181.552C248.725 181.917 248.064 182.259 247.38 182.601C247.106 182.738 246.764 182.624 246.627 182.35C246.49 182.076 246.604 181.734 246.878 181.597C248.224 180.936 249.546 180.206 250.801 179.431C251.074 179.271 251.416 179.34 251.576 179.613C251.736 179.887 251.667 180.229 251.394 180.389C250.755 180.776 250.071 181.164 249.387 181.552ZM243.229 184.357C243.206 184.38 243.184 184.38 243.161 184.402C241.701 184.927 240.219 185.383 238.759 185.748C238.463 185.816 238.144 185.634 238.075 185.337C238.007 185.041 238.189 184.722 238.486 184.653C239.9 184.311 241.359 183.855 242.773 183.353C243.07 183.239 243.389 183.399 243.503 183.695C243.594 183.923 243.48 184.22 243.229 184.357ZM255.111 177.789C254.883 177.926 254.564 177.857 254.381 177.652C254.199 177.401 254.221 177.059 254.472 176.854C255.727 175.85 256.844 174.847 257.779 173.866C257.984 173.638 258.349 173.615 258.577 173.844C258.805 174.049 258.828 174.414 258.6 174.642C257.642 175.668 256.479 176.717 255.179 177.743C255.156 177.743 255.134 177.766 255.111 177.789ZM234.426 186.5C234.358 186.546 234.29 186.569 234.221 186.569C232.67 186.751 231.12 186.82 229.615 186.797C229.295 186.797 229.044 186.523 229.067 186.227C229.067 185.907 229.341 185.657 229.637 185.679C231.097 185.702 232.602 185.634 234.084 185.451C234.404 185.406 234.677 185.634 234.723 185.953C234.746 186.181 234.609 186.386 234.426 186.5ZM225.373 186.318C225.259 186.386 225.145 186.409 225.008 186.386C224.825 186.364 224.643 186.318 224.461 186.295C223.138 186.044 221.815 185.702 220.515 185.246C220.219 185.132 220.059 184.813 220.173 184.516C220.287 184.22 220.606 184.06 220.903 184.174C222.134 184.608 223.412 184.927 224.666 185.178C224.848 185.201 225.008 185.246 225.19 185.269C225.51 185.315 225.715 185.611 225.646 185.93C225.624 186.09 225.51 186.227 225.373 186.318ZM216.821 183.376C216.661 183.467 216.456 183.467 216.273 183.376C214.974 182.669 213.651 181.848 212.374 180.936C212.123 180.753 212.054 180.389 212.237 180.138C212.419 179.887 212.784 179.818 213.035 180.001C214.289 180.89 215.544 181.689 216.821 182.373C217.094 182.51 217.208 182.874 217.049 183.148C217.003 183.239 216.912 183.33 216.821 183.376ZM209.455 178.131C209.249 178.245 208.999 178.222 208.793 178.062C207.721 177.105 206.604 176.033 205.487 174.87C205.259 174.642 205.281 174.277 205.509 174.072C205.737 173.866 206.102 173.866 206.308 174.094C207.402 175.235 208.497 176.284 209.546 177.219C209.774 177.424 209.797 177.789 209.592 178.017C209.546 178.04 209.5 178.085 209.455 178.131ZM203.138 171.586C202.91 171.723 202.613 171.677 202.431 171.449C201.518 170.4 200.561 169.237 199.512 167.937C199.306 167.686 199.352 167.344 199.603 167.139C199.854 166.933 200.196 166.979 200.401 167.23C201.45 168.53 202.385 169.67 203.297 170.719C203.503 170.947 203.48 171.312 203.229 171.517C203.206 171.563 203.16 171.586 203.138 171.586ZM197.413 164.516C197.163 164.653 196.866 164.585 196.684 164.357L196.091 163.604C195.338 162.646 194.608 161.711 193.879 160.776C193.673 160.525 193.719 160.183 193.97 159.978C194.221 159.795 194.563 159.818 194.768 160.069C195.498 161.004 196.25 161.939 196.98 162.897L197.573 163.65C197.756 163.9 197.733 164.242 197.482 164.448C197.459 164.493 197.436 164.516 197.413 164.516ZM191.735 157.424C191.507 157.561 191.21 157.492 191.028 157.287C189.933 156.01 188.953 154.892 188.018 153.935C187.79 153.706 187.812 153.342 188.041 153.136C188.269 152.908 188.633 152.931 188.839 153.159C189.797 154.14 190.8 155.257 191.895 156.58C192.1 156.831 192.077 157.173 191.826 157.378C191.803 157.378 191.781 157.401 191.735 157.424ZM185.35 150.97C185.144 151.084 184.916 151.061 184.711 150.924C183.434 149.921 182.225 149.145 181.017 148.552C180.743 148.416 180.606 148.074 180.743 147.8C180.88 147.526 181.222 147.389 181.495 147.526C182.795 148.142 184.072 148.963 185.418 150.035C185.669 150.24 185.714 150.582 185.509 150.833C185.486 150.879 185.418 150.924 185.35 150.97ZM177.231 147.275C177.14 147.321 177.026 147.344 176.912 147.344C176.319 147.275 175.703 147.275 175.11 147.321C174.243 147.367 173.377 147.458 172.51 147.549C172.191 147.595 171.917 147.367 171.872 147.047C171.826 146.728 172.054 146.454 172.373 146.409C173.263 146.318 174.152 146.226 175.019 146.181C175.68 146.135 176.341 146.158 177.003 146.226C177.322 146.249 177.55 146.546 177.504 146.842C177.504 147.024 177.39 147.207 177.231 147.275ZM168.223 148.188C168.177 148.21 168.109 148.233 168.063 148.256C166.604 148.552 165.144 148.917 163.707 149.328C163.411 149.419 163.092 149.237 163 148.94C162.909 148.644 163.092 148.324 163.388 148.233C164.87 147.8 166.353 147.435 167.835 147.139C168.132 147.07 168.451 147.275 168.496 147.572C168.542 147.823 168.428 148.074 168.223 148.188ZM159.511 150.719C159.488 150.742 159.466 150.742 159.443 150.742C158.052 151.266 156.66 151.859 155.292 152.498C155.019 152.635 154.676 152.521 154.54 152.224C154.403 151.95 154.517 151.608 154.813 151.472C156.182 150.833 157.618 150.217 159.032 149.67C159.329 149.556 159.648 149.716 159.762 149.989C159.853 150.286 159.739 150.582 159.511 150.719ZM147.47 157.059C147.219 157.196 146.923 157.127 146.74 156.899C146.558 156.648 146.603 156.283 146.831 156.101C146.877 156.055 148.245 155.006 150.708 153.592C150.982 153.433 151.324 153.524 151.484 153.798C151.643 154.071 151.552 154.413 151.278 154.573C148.884 155.941 147.538 156.99 147.538 156.99C147.516 157.013 147.493 157.036 147.47 157.059Z" fill="#6AA3FE"/>
<path d="M220.864 177.863C222.084 170.418 217.037 163.394 209.593 162.174C202.148 160.954 195.124 166 193.904 173.445C192.684 180.89 197.73 187.914 205.175 189.134C212.62 190.354 219.644 185.308 220.864 177.863Z" fill="#FFD48B"/>
<path d="M203.001 162.92C203.092 163.102 203.161 163.285 203.206 163.49C204.529 163.034 205.92 162.783 207.38 162.783C211.302 162.783 214.814 164.539 217.186 167.321C217.232 167.298 217.254 167.276 217.3 167.253C217.483 167.116 217.642 166.956 217.802 166.797C215.293 163.855 211.553 161.985 207.38 161.985C205.852 161.985 204.369 162.236 202.978 162.715C203.001 162.783 203.024 162.851 203.001 162.92Z" fill="#FFBE64"/>
<path d="M220.241 176.329C219.877 183.102 214.267 188.507 207.402 188.507C200.31 188.507 194.54 182.738 194.54 175.645C194.54 172.794 195.475 170.172 197.049 168.051C196.82 167.891 196.615 167.732 196.387 167.572C194.722 169.83 193.719 172.635 193.719 175.668C193.719 183.216 199.831 189.328 207.379 189.328C214.677 189.328 220.652 183.604 221.017 176.398C220.789 176.352 220.515 176.329 220.241 176.329Z" fill="#FFBE64"/>
<path d="M205.737 182.966C205.167 182.806 204.666 182.601 204.21 182.327C203.753 182.053 203.366 181.734 203.069 181.392L204.232 179.568C204.666 180.046 205.167 180.411 205.715 180.662C206.262 180.913 206.832 181.027 207.448 181.027C208.2 181.027 208.771 180.867 209.181 180.548C209.569 180.229 209.774 179.773 209.774 179.18C209.774 178.769 209.683 178.45 209.5 178.222C209.318 177.994 209.09 177.812 208.793 177.698C208.497 177.584 208.132 177.469 207.676 177.378C207.653 177.378 207.653 177.378 207.63 177.378C207.608 177.378 207.607 177.378 207.585 177.378C207.562 177.378 207.539 177.378 207.516 177.355C207.493 177.355 207.471 177.355 207.448 177.333C206.65 177.173 205.988 177.013 205.487 176.808C204.985 176.603 204.552 176.261 204.21 175.736C203.845 175.212 203.662 174.482 203.662 173.524C203.662 172.635 203.822 171.882 204.141 171.266C204.46 170.651 204.939 170.195 205.578 169.898C206.216 169.579 206.992 169.419 207.927 169.419C208.337 169.419 208.748 169.465 209.181 169.579C209.592 169.67 210.025 169.83 210.435 170.035C210.846 170.24 211.234 170.468 211.621 170.765L210.572 172.612C210.139 172.27 209.706 172.019 209.249 171.859C208.816 171.677 208.383 171.609 207.95 171.609C207.243 171.609 206.718 171.745 206.353 172.065C205.988 172.361 205.806 172.794 205.806 173.365C205.806 173.798 205.92 174.14 206.125 174.391C206.33 174.642 206.581 174.824 206.901 174.938C207.22 175.052 207.63 175.166 208.178 175.303C208.2 175.303 208.2 175.303 208.223 175.303C208.246 175.303 208.246 175.303 208.269 175.303C208.292 175.303 208.337 175.326 208.36 175.326C208.383 175.326 208.428 175.349 208.451 175.349C209.158 175.508 209.774 175.713 210.253 175.942C210.732 176.17 211.142 176.557 211.462 177.082C211.781 177.606 211.941 178.313 211.941 179.203C211.941 180.092 211.781 180.822 211.439 181.415C211.097 182.008 210.595 182.464 209.934 182.76C209.272 183.057 208.474 183.216 207.493 183.216C206.855 183.194 206.285 183.102 205.737 182.966ZM206.604 167.937H208.702V170.058H206.604V167.937ZM206.604 182.464H208.702V184.699H206.604V182.464Z" fill="white"/>
<path d="M267.691 176.433C268.551 171.201 265.007 166.262 259.775 165.401C254.544 164.54 249.605 168.084 248.744 173.316C247.883 178.548 251.427 183.487 256.659 184.348C261.891 185.208 266.83 181.665 267.691 176.433Z" fill="#FFD48B"/>
<path d="M255.156 165.93C255.225 166.044 255.27 166.181 255.293 166.318C256.205 165.998 257.209 165.816 258.235 165.816C260.994 165.816 263.457 167.047 265.122 169.009C265.145 168.986 265.168 168.986 265.191 168.963C265.305 168.872 265.441 168.758 265.556 168.644C263.8 166.569 261.177 165.246 258.235 165.246C257.163 165.246 256.114 165.428 255.156 165.748C255.156 165.816 255.156 165.884 255.156 165.93Z" fill="#FFBE64"/>
<path d="M267.266 175.349C267.015 180.115 263.07 183.923 258.235 183.923C253.241 183.923 249.182 179.864 249.182 174.87C249.182 172.863 249.843 171.016 250.938 169.533C250.778 169.419 250.641 169.305 250.481 169.191C249.318 170.788 248.611 172.749 248.611 174.87C248.611 180.183 252.922 184.471 258.212 184.471C263.344 184.471 267.54 180.457 267.813 175.371C267.631 175.371 267.449 175.349 267.266 175.349Z" fill="#FFBE64"/>
<path d="M257.049 180.001C256.662 179.887 256.297 179.75 255.978 179.545C255.658 179.362 255.385 179.134 255.179 178.883L256 177.606C256.32 177.948 256.662 178.199 257.049 178.382C257.437 178.564 257.848 178.655 258.281 178.655C258.805 178.655 259.216 178.541 259.49 178.336C259.763 178.108 259.9 177.789 259.9 177.378C259.9 177.082 259.832 176.877 259.718 176.694C259.581 176.534 259.421 176.398 259.216 176.329C259.011 176.238 258.737 176.17 258.418 176.101H258.395H258.372C258.349 176.101 258.349 176.101 258.326 176.101C258.304 176.101 258.281 176.101 258.281 176.101C257.711 175.987 257.255 175.873 256.913 175.736C256.57 175.599 256.251 175.349 256 174.984C255.749 174.619 255.613 174.094 255.613 173.433C255.613 172.794 255.727 172.27 255.955 171.859C256.183 171.426 256.525 171.107 256.981 170.902C257.437 170.673 257.984 170.582 258.623 170.582C258.919 170.582 259.216 170.628 259.49 170.696C259.786 170.765 260.082 170.879 260.356 171.016C260.653 171.152 260.926 171.335 261.2 171.517L260.447 172.817C260.151 172.589 259.832 172.407 259.512 172.293C259.193 172.179 258.897 172.11 258.6 172.11C258.098 172.11 257.734 172.224 257.483 172.43C257.232 172.635 257.095 172.931 257.095 173.342C257.095 173.661 257.163 173.889 257.323 174.071C257.46 174.254 257.642 174.368 257.87 174.459C258.098 174.55 258.395 174.619 258.76 174.71C258.783 174.71 258.783 174.71 258.783 174.71H258.805C258.828 174.71 258.851 174.71 258.874 174.733C258.897 174.733 258.919 174.733 258.942 174.756C259.444 174.87 259.877 175.007 260.196 175.189C260.539 175.349 260.812 175.622 261.04 175.987C261.268 176.352 261.382 176.854 261.382 177.492C261.382 178.108 261.268 178.633 261.017 179.043C260.767 179.454 260.425 179.773 259.968 180.001C259.512 180.206 258.942 180.32 258.258 180.32C257.848 180.16 257.46 180.115 257.049 180.001ZM257.665 169.442H259.147V170.924H257.665V169.442ZM257.665 179.659H259.147V181.232H257.665V179.659Z" fill="white"/>
<path d="M149.808 173.041C159.477 171.456 166.031 162.332 164.445 152.662C162.86 142.993 153.736 136.439 144.066 138.025C134.397 139.61 127.843 148.734 129.429 158.404C131.014 168.073 140.138 174.627 149.808 173.041Z" fill="#FFD48B"/>
<path d="M141.244 139.02C141.381 139.248 141.449 139.499 141.495 139.75C143.205 139.157 145.03 138.837 146.923 138.837C152.008 138.837 156.569 141.141 159.648 144.744C159.694 144.721 159.739 144.676 159.785 144.653C160.013 144.47 160.241 144.265 160.446 144.06C157.185 140.228 152.35 137.788 146.923 137.788C144.916 137.788 143 138.13 141.221 138.723C141.244 138.837 141.267 138.929 141.244 139.02Z" fill="#FFBE64"/>
<path d="M163.616 156.42C163.16 165.223 155.862 172.247 146.945 172.247C137.732 172.247 130.252 164.744 130.252 155.554C130.252 151.859 131.461 148.438 133.49 145.679C133.217 145.474 132.92 145.268 132.646 145.04C130.48 147.982 129.203 151.608 129.203 155.531C129.203 165.337 137.139 173.273 146.945 173.273C156.432 173.273 164.163 165.839 164.665 156.489C164.323 156.443 163.981 156.42 163.616 156.42Z" fill="#FFBE64"/>
<path d="M144.779 165.018C144.049 164.813 143.388 164.539 142.795 164.197C142.202 163.855 141.7 163.444 141.313 162.965L142.818 160.616C143.388 161.232 144.026 161.711 144.733 162.03C145.44 162.35 146.193 162.509 146.991 162.509C147.972 162.509 148.724 162.304 149.226 161.893C149.728 161.483 149.979 160.89 149.979 160.115C149.979 159.59 149.864 159.18 149.614 158.86C149.386 158.564 149.066 158.336 148.701 158.176C148.314 158.017 147.835 157.903 147.242 157.766C147.219 157.766 147.219 157.743 147.196 157.743C147.173 157.743 147.151 157.743 147.128 157.72C147.105 157.72 147.059 157.697 147.037 157.697C146.991 157.697 146.968 157.697 146.945 157.674C145.896 157.469 145.053 157.241 144.391 156.99C143.753 156.739 143.183 156.261 142.726 155.599C142.27 154.915 142.019 153.957 142.019 152.726C142.019 151.563 142.225 150.582 142.658 149.807C143.091 149.031 143.707 148.416 144.528 148.028C145.349 147.617 146.375 147.412 147.584 147.412C148.108 147.412 148.656 147.481 149.203 147.595C149.75 147.731 150.298 147.914 150.822 148.165C151.347 148.416 151.871 148.735 152.373 149.1L151.005 151.494C150.435 151.061 149.864 150.742 149.294 150.514C148.724 150.286 148.154 150.172 147.607 150.172C146.695 150.172 146.01 150.354 145.531 150.742C145.053 151.129 144.825 151.677 144.825 152.429C144.825 152.999 144.961 153.433 145.235 153.775C145.509 154.094 145.828 154.322 146.238 154.482C146.649 154.641 147.196 154.778 147.903 154.938C147.926 154.938 147.949 154.938 147.972 154.961C147.994 154.961 148.017 154.983 148.04 154.983C148.086 154.983 148.108 155.006 148.154 155.006C148.2 155.006 148.223 155.029 148.268 155.029C149.203 155.257 149.979 155.508 150.594 155.804C151.21 156.101 151.735 156.603 152.168 157.287C152.578 157.971 152.806 158.883 152.806 160.046V160.069C152.806 161.187 152.578 162.144 152.145 162.92C151.712 163.695 151.05 164.288 150.207 164.676C149.34 165.063 148.291 165.269 147.037 165.269C146.238 165.314 145.509 165.223 144.779 165.018ZM145.896 145.519H148.633V148.256H145.896V145.519ZM145.896 164.356H148.633V167.253H145.896V164.356Z" fill="white"/>
</svg>
