<?xml version="1.0" standalone="no"?>
<!DOCTYPE svg PUBLIC "-//W3C//DTD SVG 20010904//EN"
 "http://www.w3.org/TR/2001/REC-SVG-20010904/DTD/svg10.dtd">
<svg version="1.0" xmlns="http://www.w3.org/2000/svg"
 width="700.000000pt" height="700.000000pt" viewBox="0 0 700.000000 700.000000"
 preserveAspectRatio="xMidYMid meet">
<metadata>
Created by potrace 1.14, written by Peter Selinger 2001-2017
</metadata>
<g transform="translate(0.000000,700.000000) scale(0.100000,-0.100000)"
fill="#000000" stroke="none">
<path d="M1454 6981 c-19 -11 -36 -33 -42 -53 -6 -20 -10 -188 -10 -428 0
-217 -1 -404 -1 -415 -1 -16 -9 -20 -44 -23 -254 -15 -479 -213 -528 -466 -14
-69 -14 -5079 0 -5123 5 -18 8 -33 6 -33 -7 0 45 -123 69 -164 60 -103 189
-205 314 -248 l67 -23 1515 0 1515 0 65 23 c180 65 314 200 370 373 l21 67
612 0 c431 0 621 4 642 12 60 22 105 62 131 115 l25 53 0 1566 c0 1529 0 1567
-19 1608 -23 50 -60 91 -105 115 -29 17 -82 18 -654 21 l-623 3 0 777 c-1 427
-3 795 -6 817 -9 68 -34 147 -67 210 -36 67 -130 168 -196 209 -61 39 -167 77
-226 82 -102 10 -91 -44 -90 430 0 461 -1 470 -60 498 -18 9 -41 16 -52 16
-10 0 -86 -25 -170 -55 l-151 -55 -151 55 c-83 30 -158 55 -168 55 -20 0 -79
-20 -230 -76 l-91 -34 -138 50 c-76 27 -152 52 -169 56 -24 4 -70 -8 -185 -50
l-152 -56 -142 51 c-77 28 -154 53 -171 56 -19 2 -74 -13 -155 -43 -185 -68
-172 -66 -248 -37 -37 13 -87 31 -112 39 -25 8 -53 19 -63 25 -37 21 -101 21
-133 0z m743 -222 c123 -49 276 -97 294 -94 12 3 87 28 165 56 l143 52 148
-53 c81 -30 160 -54 174 -54 14 0 92 24 173 54 l147 53 77 -27 c42 -15 115
-41 161 -57 l84 -30 104 35 c57 20 105 36 106 36 1 0 2 -332 2 -737 0 -571 -3
-739 -12 -743 -10 -4 -2208 -5 -2314 -1 l-26 1 0 740 c0 407 3 740 6 740 3 0
47 -15 98 -34 50 -18 104 -31 120 -29 15 2 87 25 158 52 144 54 151 56 192 40z
m-796 -923 c4 -49 3 -586 -1 -587 -55 -8 -91 -35 -106 -79 -15 -44 -7 -76 28
-110 26 -27 37 -30 91 -31 34 0 680 -1 1435 -1 1000 0 1381 3 1401 12 87 36
76 173 -17 200 l-38 12 2 291 c1 161 2 295 3 299 0 3 16 4 34 2 150 -22 258
-107 307 -244 19 -54 19 -89 17 -2580 l-2 -2525 -31 -65 c-37 -77 -96 -137
-173 -177 l-56 -28 -1495 0 -1495 0 -58 28 c-100 47 -183 153 -202 257 -10 49
-9 4985 0 5040 23 140 146 264 288 289 57 10 67 9 68 -3z m3627 -3621 c-1
-1113 -4 -1525 -12 -1526 -22 -1 -191 -1 -213 0 l-23 1 0 1525 0 1525 124 0
124 0 0 -1525z m467 1330 c0 -121 5 -197 12 -210 42 -76 143 -80 190 -9 14 22
17 55 17 217 l1 192 123 3 122 3 1 -28 c4 -160 0 -3015 -4 -3020 -4 -3 -60 -7
-125 -7 l-118 -1 0 1130 c0 876 -3 1135 -12 1153 -29 51 -101 71 -151 41 -61
-37 -58 30 -57 -1197 l1 -1122 -50 -1 c-97 -3 -176 -1 -188 4 -9 3 -12 330
-10 1523 1 836 2 1520 2 1522 1 1 56 1 123 0 l123 -3 0 -190z"/>
<path d="M1911 6154 c-41 -34 -50 -85 -25 -132 28 -52 57 -60 224 -58 133 1
150 3 170 21 48 42 54 96 19 152 -22 37 -54 43 -209 43 -145 0 -149 -1 -179
-26z"/>
<path d="M2618 6157 c-56 -47 -61 -111 -13 -160 33 -32 51 -35 217 -33 l140 1
29 33 c27 31 33 47 30 82 -4 43 -14 60 -45 79 -30 19 -49 21 -182 21 -140 0
-151 -1 -176 -23z"/>
<path d="M3337 6173 c-9 -2 -28 -20 -41 -40 -35 -51 -23 -121 27 -153 32 -21
300 -24 343 -3 52 23 73 83 49 138 -23 56 -54 65 -217 64 -79 -1 -151 -3 -161
-6z"/>
<path d="M1947 5707 c-86 -32 -100 -148 -24 -197 33 -21 766 -22 809 -1 52 25
73 94 44 149 -28 55 -35 56 -437 56 -204 1 -380 -3 -392 -7z"/>
<path d="M3123 5707 c-68 -13 -103 -95 -67 -156 32 -54 39 -55 317 -56 274 -1
302 3 331 47 36 55 23 120 -30 155 -23 14 -58 17 -269 17 -134 1 -260 -2 -282
-7z"/>
<path d="M1434 4764 c-52 -19 -102 -67 -127 -124 -20 -44 -21 -64 -21 -615 1
-553 1 -571 21 -616 23 -52 81 -105 135 -123 28 -10 323 -13 1355 -13 1145 0
1324 2 1362 15 57 19 123 85 139 138 9 31 12 189 12 608 0 548 -1 568 -20 609
-26 55 -73 99 -128 120 -38 15 -161 17 -1365 16 -1127 -1 -1328 -3 -1363 -15z
m2656 -738 l0 -534 -1289 0 c-963 0 -1291 3 -1293 12 -4 9 -2 1028 1 1049 0 4
582 7 1291 7 l1290 0 0 -534z"/>
<path d="M1615 3015 c-132 -30 -229 -125 -259 -252 -40 -176 52 -345 219 -404
42 -15 82 -19 163 -19 129 0 152 4 217 35 168 82 240 286 158 452 -41 86 -103
142 -193 177 -55 22 -231 28 -305 11z m240 -221 c60 -23 88 -101 59 -160 -32
-63 -58 -76 -160 -76 -98 -1 -135 11 -165 52 -51 71 -7 181 76 192 46 6 168 1
190 -8z"/>
<path d="M2649 3011 c-208 -60 -309 -283 -216 -480 40 -84 143 -166 236 -186
61 -13 243 -7 291 10 105 37 195 127 225 229 22 72 13 181 -20 247 -36 72
-112 143 -183 170 -74 28 -251 33 -333 10z m274 -226 c54 -35 71 -98 42 -159
-25 -51 -63 -68 -163 -68 -141 -2 -190 40 -183 154 2 27 50 77 84 86 57 15
189 8 220 -13z"/>
<path d="M3739 3019 c-106 -16 -210 -94 -259 -194 -21 -43 -25 -64 -25 -145 1
-83 4 -102 27 -145 49 -95 146 -171 243 -190 60 -11 227 -6 280 9 202 59 304
290 211 478 -44 89 -135 163 -226 183 -47 10 -194 13 -251 4z m200 -218 c13 0
39 -17 57 -37 27 -28 34 -44 34 -75 0 -52 -23 -95 -60 -114 -38 -19 -171 -23
-223 -6 -69 23 -98 112 -57 178 32 54 79 64 249 54z"/>
<path d="M1583 2072 c-148 -53 -235 -175 -235 -327 0 -145 88 -271 224 -321
56 -21 253 -26 320 -9 103 28 183 98 230 201 33 73 32 189 -4 266 -35 76 -95
138 -165 173 -53 27 -68 29 -188 32 -107 3 -139 0 -182 -15z m284 -222 c65
-39 79 -116 34 -179 -28 -39 -63 -49 -157 -46 -109 3 -106 2 -135 28 -47 40
-56 111 -21 165 26 40 61 51 157 52 72 0 96 -4 122 -20z"/>
<path d="M2633 2071 c-244 -83 -315 -390 -131 -568 23 -23 70 -54 103 -70 56
-26 69 -27 195 -27 125 0 139 2 192 26 126 58 199 165 204 298 6 157 -80 287
-226 340 -70 26 -262 26 -337 1z m308 -237 c61 -61 43 -166 -33 -198 -21 -9
-65 -13 -126 -12 -89 2 -94 4 -123 33 -41 41 -52 90 -29 140 26 59 64 74 182
71 94 -3 99 -4 129 -34z"/>
<path d="M3715 2081 c-107 -28 -192 -99 -239 -200 -16 -36 -21 -65 -21 -136 0
-80 3 -97 29 -148 36 -71 99 -130 173 -164 48 -22 72 -26 172 -28 170 -4 249
22 330 110 57 62 83 124 89 211 9 146 -62 265 -198 332 -50 25 -66 27 -180 29
-69 1 -138 -2 -155 -6z m249 -226 c86 -41 88 -170 3 -217 -33 -18 -183 -20
-223 -3 -19 8 -43 29 -54 47 -38 61 -10 151 55 178 35 15 184 11 219 -5z"/>
<path d="M1613 1145 c-105 -24 -212 -117 -247 -216 -28 -78 -26 -181 6 -251
47 -102 148 -186 243 -203 49 -8 237 -6 277 4 89 21 180 98 224 189 23 48 27
70 28 142 0 74 -3 94 -27 142 -45 92 -120 157 -214 187 -53 17 -225 20 -290 6z
m244 -224 c45 -19 68 -59 67 -115 0 -43 -5 -53 -37 -82 -39 -36 -50 -38 -171
-35 -67 1 -101 15 -128 52 -51 68 -11 170 74 188 48 11 163 6 195 -8z"/>
<path d="M2694 1149 c-136 -17 -246 -116 -290 -259 -13 -43 -6 -135 15 -194
35 -100 112 -175 216 -211 62 -21 251 -24 310 -5 156 50 247 166 252 320 5
153 -85 285 -228 335 -46 17 -196 24 -275 14z m230 -234 c50 -33 70 -103 45
-157 -5 -13 -25 -34 -44 -46 -44 -31 -178 -36 -236 -10 -71 31 -92 121 -44
184 32 41 66 51 171 49 58 -2 88 -7 108 -20z"/>
<path d="M3767 1154 c-1 -1 -18 -4 -37 -7 -83 -11 -170 -69 -222 -148 -134
-204 -19 -476 222 -526 42 -9 233 -3 271 8 258 75 335 405 136 584 -69 63
-139 86 -265 89 -56 1 -104 1 -105 0z m209 -238 c30 -20 57 -72 56 -107 -1
-42 -29 -87 -64 -105 -39 -20 -183 -23 -228 -4 -106 44 -83 214 31 232 55 9
181 -1 205 -16z"/>
</g>
</svg>
