<?xml version="1.0" ?><!DOCTYPE svg  PUBLIC '-//W3C//DTD SVG 1.1//EN'  'http://www.w3.org/Graphics/SVG/1.1/DTD/svg11.dtd'><svg enable-background="new 0 0 48 48" height="48px" id="Layer_4" version="1.1" viewBox="0 0 48 48" width="48px" xml:space="preserve" xmlns="http://www.w3.org/2000/svg" xmlns:xlink="http://www.w3.org/1999/xlink"><g><path d="M28.987,22c-0.025-0.056-0.04-0.086-0.04-0.086l-0.005,0.004c-0.244-0.467-0.729-0.788-1.293-0.788   c-0.576,0-1.071,0.336-1.31,0.822l-0.003-0.002c0,0-0.013,0.025-0.035,0.072c-0.001,0.002-0.001,0.003-0.001,0.005   c-0.151,0.335-0.688,1.736-0.008,3.413c0.005,0.011,0.008,0.021,0.013,0.032c0.001,0.002,0.001,0.005,0.004,0.008c0,0,0,0,0.001,0   c0.225,0.518,0.74,0.879,1.339,0.879c0.562,0,1.044-0.32,1.291-0.783c0.002-0.001,0.004-0.001,0.007-0.001   c0.821-1.445,0.259-3.053,0.061-3.521C29.003,22.036,28.994,22.019,28.987,22z" fill="#241F20"/><path d="M44.974,21.149c-0.229-0.136-0.49-0.221-0.773-0.221c-0.731,0-1.342,0.513-1.494,1.198h-0.001   c0,0-0.314,1.217,0.247,2.281c1.026-0.618,2.065-1.263,2.43-1.489c0.086-0.057,0.598-0.416,0.249-0.966   C45.339,21.493,45.119,21.259,44.974,21.149z" fill="#241F20"/><path d="M21.72,20.015c-0.011-1.611-1.916-1.623-1.916-1.623h-0.587c-0.305,0.013-1.115,0.128-1.115,1.026v2.614   h1.702C20.267,22.032,21.731,21.626,21.72,20.015z" fill="#241F20"/><path d="M3.831,24.184l0.62-0.36c0.314-0.186,0.699-0.413,1.001-0.59c0.616-0.36,0.767-0.42,0.842-0.721   c0.008-0.231-0.188-0.532-0.359-0.75c-0.001,0-0.002-0.001-0.003-0.001c-0.013-0.02-0.028-0.038-0.042-0.059   c-0.103-0.126-0.185-0.211-0.194-0.221C5.456,21.265,5.14,21.13,4.791,21.13c-0.601,0-1.104,0.396-1.28,0.937l-0.004-0.003   c0,0-0.36,1.022-0.024,2.101c0,0,0,0,0,0.001C3.519,24.294,3.737,24.221,3.831,24.184z" fill="#241F20"/><path d="M0,9v17.409l2.269-1.317c-0.211-0.415-0.333-0.881-0.333-1.377c0-1.677,1.359-3.035,3.036-3.035   c0.647,0,1.244,0.208,1.735,0.555c0.001-0.002,0.001-0.005,0.002-0.007c1.016,0.684,2.079,0.292,2.079,0.292l1.367-0.586v1.085   c1.262-0.982,2.032-1.272,3.046-1.171c1.014,0.102,0.845,1.827,0.845,1.827v3.031c0,0,0.056,0.518,0.608,0.518h1.127   c0,0,0.939,0.012,0.939-1.138v-5.387c0-1.194-1.063-1.307-1.063-1.307h-0.474V18.1h4.845v0.001c2.523,0.026,2.934,0.75,3.099,1.158   c0.168,0.417,0.316,1.308-0.395,2.198c-0.457,0.573-1.229,0.827-1.724,0.936v0l2.062,3.075c0,0,0.396,0.755,1.465,0.755h0.958   v0.271h-2.209h-1.274l-2.68-4.07h-1.229v2.572c0,0,0.011,1.228,0.834,1.228h0.991v0.271H11.69v-0.271h0.339   c0,0,0.631,0.022,0.631-0.643v-3.087c0-1.453-1.24-0.89-1.24-0.89l-1.266,0.845v0.62v2.428c0,0,0.03,0.727,0.556,0.727h0.525v0.271   h-3.29v-0.271h0.368c0,0,0.578-0.15,0.578-0.578v-3.073c0-0.66-0.883-0.385-0.885-0.385l-0.58,0.311l-0.094,0.056   c0-0.001,0-0.001,0-0.001l-2.115,1.27l-0.001,0.002l-1.492,0.896c0.096,0.168,0.211,0.334,0.355,0.494   c0.064,0.074,0.133,0.144,0.207,0.209c0.005,0.005,0.01,0.011,0.016,0.016c0.007,0.006,0.015,0.012,0.021,0.017   c0.012,0.011,0.023,0.021,0.036,0.03c0.107,0.092,0.208,0.158,0.301,0.203c0.302,0.167,0.649,0.264,1.02,0.264   c0.206,0,0.403-0.031,0.59-0.084c0.003-0.002,0.004-0.003,0.006-0.003c0.008-0.003,0.017-0.005,0.024-0.007   c0.112-0.027,0.754-0.222,1.416-1.004l0.005,0.002c0.039-0.047,0.062-0.077,0.062-0.077s0,0,0.226,0.165   c-0.887,1.278-1.732,1.51-1.732,1.51l-0.001-0.001c-0.396,0.188-0.836,0.294-1.302,0.294c-1.038,0-1.953-0.521-2.501-1.314   L0,26.883V39h48v-4v-5.062V25.75V14V9H0z M27.649,26.645c-1.736,0-3.147-1.324-3.147-2.96c0-1.635,1.411-2.96,3.147-2.96   c1.74,0,3.147,1.325,3.147,2.96C30.797,25.32,29.39,26.645,27.649,26.645z M38.092,26.494h-1.014h-0.181h-1.194v-0.945   c-1.184,0.754-1.982,1.238-2.93,1.096c-0.724-0.109-0.849-0.832-0.866-1.164h-0.001v-0.035c-0.004-0.082,0-0.135,0-0.135v-2.491   c0-0.008-0.001-0.013-0.001-0.021c-0.003-1.025-0.96-0.982-1.098-0.971l-0.018,0.002c0,0,0,0,0.007-0.236   c1.236-0.057,2.394-0.823,2.394-0.823v1.6v0.428v2.565c0.002,0.121,0.049,0.574,0.575,0.57c0.607-0.004,1.938-0.803,1.938-0.803   V22.63c0-0.722-0.676-0.752-0.676-0.752l-0.463,0.008c0,0,0,0,0-0.27c1.703-0.136,2.514-0.846,2.514-0.846v1.499v0.428v2.636   c0,0.981,1.014,0.891,1.014,0.891V26.494z M45.732,23.125l-0.179,0.108l-0.001,0.001l-2.414,1.469   c0.079,0.109,0.166,0.216,0.27,0.317c0.003,0.003,0.005,0.005,0.008,0.008c0.39,0.403,0.935,0.655,1.539,0.655   c0.838,0,1.562-0.482,1.914-1.184l0.046,0.006h0.416c0,0-0.413,0.78-1.072,1.271c-0.035,0.024-0.062,0.045-0.088,0.062   c-0.51,0.404-1.15,0.652-1.854,0.652c-0.933,0-1.768-0.427-2.317-1.095l-0.787,0.478c0,0-1.148,0.744-1.812,0.597   c-0.867-0.1-0.777-1.487-0.777-1.487v-3.651h-1.14c0,0,0,0,0-0.315c2.277-0.271,2.13-2.355,2.13-2.355h0.282v2.355h1.725v0.315   h-1.725v0.315v3.042c0,0.143,0.002,0.268,0.007,0.382c0.005,0.1,0.079,0.877,0.703,0.655c0.18-0.064,0.627-0.31,1.182-0.63   c-0.297-0.466-0.473-1.018-0.473-1.611c0-1.658,1.345-3.002,3.003-3.002c0.636,0,1.22,0.201,1.703,0.539L46.02,21.02   c0,0,0.013,0.009,0.023,0.018c0.119,0.084,0.229,0.175,0.333,0.274c0.193,0.16,0.416,0.348,0.539,0.46   c0.249,0.226,0.396,0.259,0.496,0.293c-0.462,0.304-0.462,0.304-0.462,0.304L45.732,23.125L45.732,23.125z" fill="#241F20"/></g></svg>